<svg width="149" height="149" viewBox="0 0 149 149" fill="none" xmlns="http://www.w3.org/2000/svg">
<path d="M113.028 138.264C97.355 147.734 78.7433 151.1 60.7463 147.719C42.7493 144.339 26.6277 134.448 15.4596 119.936L74.4999 74.4999L113.028 138.264Z" fill="#2488FF"/>
<path d="M113.028 138.264C97.355 147.734 78.7433 151.1 60.7463 147.719C42.7493 144.339 26.6277 134.448 15.4596 119.936L74.4999 74.4999L113.028 138.264Z" fill="#39B632"/>
<path d="M147.72 88.2487C144.341 106.246 134.451 122.368 119.94 133.537C105.429 144.706 87.3129 150.14 69.0502 148.8L74.4999 74.4999L147.72 88.2487Z" fill="#39B632"/>
<path d="M147.72 88.2487C144.341 106.246 134.451 122.368 119.94 133.537C105.429 144.706 87.3129 150.14 69.0502 148.8L74.4999 74.4999L147.72 88.2487Z" fill="#2488FF"/>
<path d="M135.886 116.713C145.538 102.678 150.088 85.759 148.78 68.776C147.471 51.793 140.382 35.7713 128.694 23.3805L74.4999 74.4999L135.886 116.713Z" fill="#2488FF"/>
<path d="M135.886 116.713C145.538 102.678 150.088 85.759 148.78 68.776C147.471 51.793 140.382 35.7713 128.694 23.3805L74.4999 74.4999L135.886 116.713Z" fill="#8400D0"/>
<path d="M21.8205 21.8205C30.7659 12.8751 41.8419 6.35496 54.0045 2.87467C66.1671 -0.605624 79.0156 -0.931423 91.3389 1.92798C103.662 4.78739 115.054 10.7378 124.442 19.2184C133.829 27.6989 140.902 38.4302 144.994 50.4008L74.4999 74.4999L21.8205 21.8205Z" fill="#E90000"/>
<path d="M26.4794 131.458C16.299 122.876 8.60507 111.721 4.19824 99.1558C-0.208578 86.5906 -1.16718 73.0738 1.42221 60.0124C4.0116 46.951 10.0543 34.8223 18.9215 24.8886C27.7887 14.9549 39.1562 7.57933 51.841 3.52943L74.4999 74.4999L26.4794 131.458Z" fill="#FF8100"/>
</svg>
