<svg width="18" height="18" viewBox="0 0 18 18" fill="none" xmlns="http://www.w3.org/2000/svg">
<path d="M17.4375 12.375C17.4375 12.6855 17.1855 12.9375 16.875 12.9375C16.875 12.9375 8.58938 12.9375 8.29659 12.9375C8.00381 12.9375 7.79288 13.16 7.79288 13.16L3.9375 17.0156V13.2188C3.9375 13.0632 3.81178 12.9375 3.65625 12.9375H1.125C0.8145 12.9375 0.5625 12.6855 0.5625 12.375V1.125C0.5625 0.8145 0.8145 0.5625 1.125 0.5625H16.875C17.1855 0.5625 17.4375 0.8145 17.4375 1.125V12.375Z" fill="#F9EBB2"/>
<path d="M16.875 0H1.125C0.503156 0 0 0.503156 0 1.125V12.375C0 12.9968 0.503156 13.5 1.125 13.5H3.375V17.7188C3.375 17.8324 3.44334 17.9353 3.54853 17.9786C3.58341 17.9932 3.61997 18 3.65625 18C3.72937 18 3.80137 17.9713 3.85509 17.9176L8.27269 13.5H16.875C17.4968 13.5 18 12.9968 18 12.375V1.125C18 0.503156 17.4968 0 16.875 0ZM17.4375 12.375C17.4375 12.6855 17.1855 12.9375 16.875 12.9375C16.875 12.9375 8.58938 12.9375 8.29659 12.9375C8.00381 12.9375 7.79288 13.16 7.79288 13.16L3.9375 17.0156V13.2188C3.9375 13.0632 3.81178 12.9375 3.65625 12.9375H1.125C0.8145 12.9375 0.5625 12.6855 0.5625 12.375V1.125C0.5625 0.8145 0.8145 0.5625 1.125 0.5625H16.875C17.1855 0.5625 17.4375 0.8145 17.4375 1.125V12.375Z" fill="#394240"/>
<path d="M4.21875 4.5H8.71875C8.87428 4.5 9 4.37428 9 4.21875C9 4.06322 8.87428 3.9375 8.71875 3.9375H4.21875C4.06322 3.9375 3.9375 4.06322 3.9375 4.21875C3.9375 4.37428 4.06322 4.5 4.21875 4.5Z" fill="#394240"/>
<path d="M13.7812 5.625H4.21875C4.06322 5.625 3.9375 5.75072 3.9375 5.90625C3.9375 6.06178 4.06322 6.1875 4.21875 6.1875H13.7812C13.9368 6.1875 14.0625 6.06178 14.0625 5.90625C14.0625 5.75072 13.9368 5.625 13.7812 5.625Z" fill="#394240"/>
<path d="M4.21875 7.875H10.9688C11.1243 7.875 11.25 7.74928 11.25 7.59375C11.25 7.43822 11.1243 7.3125 10.9688 7.3125H4.21875C4.06322 7.3125 3.9375 7.43822 3.9375 7.59375C3.9375 7.74928 4.06322 7.875 4.21875 7.875Z" fill="#394240"/>
<path d="M12.6562 9H4.21875C4.06322 9 3.9375 9.12572 3.9375 9.28125C3.9375 9.43678 4.06322 9.5625 4.21875 9.5625H12.6562C12.8118 9.5625 12.9375 9.43678 12.9375 9.28125C12.9375 9.12572 12.8118 9 12.6562 9Z" fill="#394240"/>
</svg>
