<svg width="30" height="31" viewBox="0 0 30 31" fill="none" xmlns="http://www.w3.org/2000/svg">
<path fill-rule="evenodd" clip-rule="evenodd" d="M6.27907 15.451C6.27907 14.4474 6.44442 13.4852 6.73954 12.5828L1.57395 8.60622C0.56721 10.6668 0 12.9887 0 15.451C0 17.9112 0.566512 20.2317 1.57186 22.2909L6.73465 18.3066C6.44233 17.4084 6.27907 16.4497 6.27907 15.451Z" fill="#FBBC05"/>
<path fill-rule="evenodd" clip-rule="evenodd" d="M15.3488 6.32087C17.5116 6.32087 19.4651 7.09342 21 8.35759L25.4651 3.86275C22.7442 1.47487 19.2558 0 15.3488 0C9.28326 0 4.07023 3.49685 1.57395 8.60621L6.73953 12.5827C7.92977 8.94052 11.3226 6.32087 15.3488 6.32087Z" fill="#EB4335"/>
<path fill-rule="evenodd" clip-rule="evenodd" d="M15.3488 24.5812C11.3226 24.5812 7.92977 21.9615 6.73953 18.3193L1.57395 22.2951C4.07023 27.4052 9.28326 30.902 15.3488 30.902C19.0926 30.902 22.6668 29.562 25.3493 27.0512L20.4461 23.2299C19.0626 24.1085 17.3205 24.5812 15.3488 24.5812Z" fill="#34A853"/>
<path fill-rule="evenodd" clip-rule="evenodd" d="M30 15.451C30 14.538 29.8605 13.5548 29.6512 12.6418H15.3488V18.6115H23.5814C23.1698 20.6468 22.0493 22.2116 20.446 23.2299L25.3493 27.0512C28.1672 24.4147 30 20.4874 30 15.451Z" fill="#4285F4"/>
</svg>
