<svg width="45" height="45" viewBox="0 0 45 45" fill="none" xmlns="http://www.w3.org/2000/svg">
<g clip-path="url(#clip0_0_11)">
<path d="M39.8572 35.3977C37.3652 33.8615 36.2248 29.0157 36.2248 27.4008V20.6117C36.2248 13.2165 30.9202 7.06438 23.9093 5.74312C24.0951 5.50239 24.2533 5.23837 24.3737 4.95237C24.5551 4.52584 24.6547 4.05387 24.6547 3.56493C24.6553 2.83025 24.4297 2.13847 24.0454 1.5714C23.6611 1.00239 23.1191 0.552568 22.4784 0.280986C22.0513 0.0995801 21.5794 0 21.0904 0C20.3564 0 19.6646 0.225527 19.0969 0.609873C18.5285 0.993604 18.0781 1.53615 17.8065 2.17687C17.6256 2.60411 17.5261 3.07538 17.5261 3.56493C17.5255 4.29829 17.7516 4.99078 18.1354 5.55847C18.1782 5.62148 18.2236 5.68327 18.2709 5.74312C11.2607 7.065 5.9561 13.2171 5.9561 20.6117V27.4008C5.9561 29.0157 4.81563 33.8615 2.32341 35.3977C-5.52584 40.2354 7.97416 45 21.0904 45C34.2067 45 47.7067 40.2354 39.8572 35.3977ZM19.9815 2.81839C20.1264 2.60411 20.3318 2.43343 20.5706 2.33323C20.73 2.26582 20.9033 2.22803 21.0904 2.22803C21.3708 2.22864 21.6229 2.31187 21.8371 2.4561C22.0513 2.60042 22.222 2.80644 22.3229 3.04523C22.3897 3.20405 22.4269 3.37729 22.4269 3.56511C22.4263 3.84548 22.3437 4.09685 22.1994 4.31104C22.0551 4.52531 21.8491 4.696 21.6109 4.79689C21.4515 4.86369 21.2782 4.90148 21.0904 4.90148C20.8101 4.90087 20.5587 4.81834 20.3438 4.67402C20.1302 4.52909 19.9594 4.32308 19.8586 4.08428C19.7918 3.92546 19.754 3.75284 19.754 3.56511C19.7547 3.28395 19.8372 3.03258 19.9815 2.81839Z" fill="#F8CC6D"/>
<path d="M41.8704 39.0452C41.8704 42.3335 32.5057 45 20.9526 45C9.40021 45 0.0356445 42.3335 0.0356445 39.0452C0.0356445 35.7568 9.40021 33.0903 20.9526 33.0903C32.5057 33.0903 41.8704 35.7568 41.8704 39.0452Z" fill="#EBB75A"/>
<path d="M22.3392 3.08355C22.7235 4.06705 21.9125 4.82889 21.0903 4.87362V45C23.2011 45 25.3131 44.8803 27.41 44.6447C29.7091 44.3863 31.9989 43.9937 34.2388 43.4078C36.02 42.9396 37.8062 42.3606 39.4281 41.4766C40.4362 40.9285 41.6037 40.1774 42.0392 39.0559C42.4398 38.0232 41.8835 37.0492 41.1331 36.3478C40.5237 35.7782 39.7576 35.4229 39.1577 34.8495C38.4433 34.1659 37.9235 33.2945 37.5126 32.4036C36.7994 30.8618 36.2241 29.049 36.2241 27.3371V20.9255C36.2241 17.5628 35.2677 14.3167 33.2508 11.601C30.9982 8.566 27.628 6.44071 23.9112 5.74128C25.6855 3.44145 23.9925 -0.00123014 21.0903 3.29751e-07V2.25571C21.5699 2.22987 22.0544 2.44846 22.3064 3.00797L22.3139 3.02564C22.3171 3.03188 22.3203 3.0382 22.3228 3.04576C22.326 3.05464 22.331 3.06211 22.3335 3.07099C22.3372 3.07925 22.3392 3.08355 22.3392 3.08355Z" fill="#F7BB62"/>
<path d="M17.1737 34.9455C8.40084 35.3557 1.80078 37.1345 1.80078 39.2691C1.80078 41.7 10.3677 43.6709 20.9529 43.6816V34.8567C19.66 34.858 18.3954 34.8876 17.1737 34.9455Z" fill="#AD7E42"/>
<path d="M25.3153 34.9654C23.9392 34.893 22.5102 34.8557 21.0409 34.8557C21.0119 34.8557 20.9823 34.8563 20.9526 34.8563V43.6812C20.9823 43.6812 21.0119 43.6819 21.0409 43.6819C31.6677 43.6819 40.2822 41.7066 40.2822 39.2689C40.2822 37.1681 33.885 35.4102 25.3153 34.9654Z" fill="#9E703B"/>
<path d="M25.9576 37.3395C25.9576 39.9461 23.8444 42.0594 21.239 42.0594C18.6336 42.0594 16.521 39.9462 16.521 37.3395C16.521 36.4656 16.7592 35.6465 17.1738 34.9452C18.4238 34.8859 19.7174 34.8557 21.0411 34.8557C22.5105 34.8557 23.9395 34.893 25.3155 34.9654C25.7245 35.6622 25.9576 36.4744 25.9576 37.3395Z" fill="#ECC052"/>
<path d="M19.5408 40.4162C20.077 40.4162 20.5117 39.9815 20.5117 39.4453C20.5117 38.9091 20.077 38.4744 19.5408 38.4744C19.0045 38.4744 18.5698 38.9091 18.5698 39.4453C18.5698 39.9815 19.0045 40.4162 19.5408 40.4162Z" fill="#ECC052"/>
<path d="M10.0633 19.2143C10.0639 17.0166 10.7617 14.9858 11.9506 13.3205C13.1389 11.6565 14.8181 10.3624 16.77 9.65413C17.2325 9.48591 17.4713 8.97552 17.3037 8.51243C17.1354 8.04995 16.6244 7.81177 16.162 7.97999C13.8641 8.81354 11.8958 10.3308 10.4998 12.2852C9.10395 14.2385 8.28006 16.6353 8.28076 19.2142C8.28076 19.7057 8.67987 20.1045 9.17162 20.1045C9.66407 20.1045 10.0633 19.7057 10.0633 19.2143Z" fill="#F8CC6D"/>
</g>
<defs>
<clipPath id="clip0_0_11">
<rect width="45" height="45" fill="white"/>
</clipPath>
</defs>
</svg>
