<svg width="33" height="33" viewBox="0 0 33 33" fill="none" xmlns="http://www.w3.org/2000/svg">
<path d="M16.4141 3.30005C15.3921 3.30005 15.0036 4.11809 15.0827 5.70286C15.1352 6.74756 15.487 9.6601 14.0126 11.136C12.6374 12.5118 12.2375 12.3896 10.6705 14.1662C9.10427 15.9422 7.79875 15.5769 5.97113 15.4199C3.6752 15.223 4.45738 27.9697 6.07553 27.7487C7.22414 27.5916 9.83522 27.2783 10.2529 27.2783C10.6705 27.2783 13.5348 29.4981 16.049 29.5247C20.1213 29.5671 22.3672 28.8453 22.3672 28.8453L23.5607 26.1367L23.9601 17.8778L22.0533 13.9048C22.0533 13.9048 19.4948 14.3226 18.7639 13.1734C18.033 12.0243 19.3385 10.6136 19.3385 7.32246C19.3385 4.03134 16.9362 3.30005 16.4141 3.30005Z" fill="url(#paint0_linear_2461_3649)"/>
<path d="M22.5104 28.8211L22.3553 28.2557C21.8965 28.2069 21.3061 28.4159 20.4999 28.4095C16.6491 28.3798 12.9678 27.2737 11.3883 26.0226C10.3536 25.2032 9.89986 24.113 9.16895 24.4264C8.26715 24.8132 5.70861 25.4147 4.76758 24.2231C5.03084 26.2619 5.50038 27.827 6.07628 27.7485C7.22488 27.5915 9.83597 27.2781 10.2536 27.2781C10.6713 27.2781 13.4558 29.4397 16.0497 29.5245C19.4057 29.634 22.3863 29.056 22.3863 29.056L22.5104 28.8211Z" fill="url(#paint1_linear_2461_3649)"/>
<path d="M7.6025 16.2247C9.11687 16.6425 10.0788 15.9511 10.8528 15.0103C11.6217 14.0757 12.2886 13.2469 14.2207 11.9933C16.1527 10.7396 15.9046 7.29148 15.7477 6.1423C15.5908 4.99311 15.6952 3.30005 16.4147 3.30005C15.3927 3.30005 15.0042 4.11809 15.0832 5.70286C15.1358 6.7476 15.4876 9.6601 14.0131 11.136C12.638 12.5118 12.238 12.3896 10.6711 14.1662C9.10486 15.9423 7.7993 15.5769 5.97168 15.4199C5.97234 15.8163 6.08813 15.8068 7.6025 16.2247Z" fill="url(#paint2_linear_2461_3649)"/>
<path d="M18.7646 13.1735C18.0337 12.0243 19.3392 10.6136 19.3392 7.32246C19.3392 4.03134 16.9376 3.30005 16.4148 3.30005C16.2775 3.30005 16.1554 3.31525 16.0459 3.34437C18.176 3.47796 19.4588 6.16569 18.7247 8.93703C18.1292 11.186 17.8324 12.9892 18.8051 14.0466C19.4341 14.731 20.6852 14.6145 22.0547 13.9048C22.0547 13.9048 19.4955 14.3226 18.7646 13.1735Z" fill="url(#paint3_linear_2461_3649)"/>
<path d="M18.9083 14.3461C17.6553 14.764 14.4905 15.7472 12.0933 17.9222C6.01809 23.4337 16.3902 24.1245 18.5324 28.8384C18.9418 29.7393 21.3352 24.1131 21.3352 24.1131L22.1092 22.8101L19.8727 16.8515L18.9083 14.3461Z" fill="url(#paint4_linear_2461_3649)"/>
<path d="M19.0917 14.8234C17.8387 15.2413 12.7197 18.5223 12.7197 20.1425C12.7197 24.8184 16.2649 22.5105 18.1811 28.0279C18.4463 28.7921 19.3835 29.4347 19.3835 29.4347C20.16 28.8009 21.3352 24.113 21.3352 24.113L22.1091 22.81L19.8727 16.8514L19.0917 14.8234Z" fill="url(#paint5_linear_2461_3649)"/>
<path d="M21.9846 29.1547L24.383 26.4113L24.9114 14.9505L18.9077 14.3452C17.5294 15.0873 17.3699 16.1022 17.8819 17.732C18.0971 18.4177 17.2218 18.6139 17.1655 20.6115C17.1263 21.9963 18.0325 22.0026 18.0325 22.4141C18.0325 22.8257 17.5813 22.789 17.4313 23.9812C17.2174 25.6869 18.6451 25.7199 18.6451 26.0846C18.6451 26.4492 17.8521 26.6658 17.9009 28.0562C17.9629 29.8195 14.6899 29.4631 12.4769 27.8586C11.5681 27.1995 10.7752 27.1318 10.1562 27.2812C10.1949 27.2793 10.2278 27.278 10.2524 27.278C10.6701 27.278 13.4755 29.5245 16.0486 29.5245C19.0577 29.5245 21.1385 29.3485 21.9846 29.1547Z" fill="url(#paint6_linear_2461_3649)"/>
<path d="M22.5357 15.1013C20.6821 15.1013 19.6639 16.9134 20.3688 18.3057C21.0738 19.698 19.0633 21.5411 19.2721 22.4484C19.481 23.3558 19.8467 25.6522 20.1334 26.0321C20.4207 26.412 19.6632 27.2737 19.6632 27.2737L22.0129 27.5612L24.2057 26.5937L24.1273 19.9602L24.362 15.8067L22.5357 15.1013Z" fill="url(#paint7_linear_2461_3649)"/>
<path d="M10.6714 14.1662C9.65378 15.3198 8.74628 15.5699 7.73438 15.5605C8.02614 16.0315 8.22925 16.5463 8.20838 17.0497C8.15331 18.3692 8.44379 19.9957 8.66592 18.304C8.83488 17.0155 9.70819 15.4231 10.7587 14.0681C10.7302 14.1004 10.7017 14.1321 10.6714 14.1662Z" fill="url(#paint8_linear_2461_3649)"/>
<path d="M23.9397 13.8528C21.7482 13.7693 17.8082 13.6451 17.7202 15.9423C17.6569 17.6081 18.8378 18.1545 20.6642 18.2241C22.4905 18.2938 23.4037 18.3286 24.1599 18.3571C24.9162 18.3856 27.2956 18.3717 27.3191 16.3601C27.3482 13.8471 23.9397 13.8528 23.9397 13.8528Z" fill="url(#paint9_linear_2461_3649)"/>
<path d="M20.3356 22.1566C19.7483 22.1395 18.0035 22.5795 17.8403 23.6882C17.7118 24.5601 18.1567 25.6865 19.6749 25.9524C21.5981 26.2892 24.8027 26.4659 26.0001 26.0176C26.5348 25.8175 27.0012 25.2572 27.0259 24.4081C27.0506 23.559 26.4203 22.4149 25.0501 22.375C23.6801 22.3358 22.9662 22.3567 22.1853 22.2642C21.2462 22.154 20.8051 22.1705 20.3356 22.1566Z" fill="url(#paint10_linear_2461_3649)"/>
<path d="M19.7238 26.0314C19.058 26.0314 18.2354 26.619 18.2354 27.5985C18.2354 28.5779 18.4898 29.3029 19.9193 29.5771C21.3489 29.8512 23.6398 29.6163 24.5011 29.3422C25.1725 29.1282 25.4212 28.5001 25.4212 27.4617C25.4212 26.4233 24.7757 26.2416 24.0707 26.2416C23.3658 26.2416 22.5102 26.3701 22.0216 26.3448C20.6572 26.2726 20.3895 26.0314 19.7238 26.0314Z" fill="url(#paint11_linear_2461_3649)"/>
<path d="M23.7532 14.3163C21.8396 14.2435 18.3989 14.1327 18.3299 15.9486C18.2799 17.2655 19.3127 17.7011 20.9074 17.7619C22.5021 17.8227 26.6978 17.8993 26.7118 16.3095C26.7289 14.3226 23.7532 14.3163 23.7532 14.3163Z" fill="url(#paint12_linear_2461_3649)"/>
<path d="M20.5126 22.625C20.0013 22.6104 18.5698 22.732 18.4325 23.7912C18.3394 24.508 18.7109 25.4286 20.0329 25.6483C21.708 25.9269 24.4975 26.0763 25.5398 25.711C26.0049 25.5476 26.4106 25.0899 26.4302 24.394C26.4505 23.6982 25.8094 22.8453 24.6172 22.8105C23.4249 22.7757 22.7902 22.8865 22.1099 22.8092C21.2923 22.7174 20.9214 22.6364 20.5126 22.625Z" fill="url(#paint13_linear_2461_3649)"/>
<path d="M20.0088 26.3888C19.433 26.3888 18.7217 26.8617 18.7217 27.6507C18.7217 28.4396 18.9419 29.0234 20.1785 29.2437C21.415 29.464 23.3964 29.2753 24.1419 29.0544C24.7222 28.8822 24.938 28.3763 24.938 27.5399C24.938 26.7034 24.3792 26.5578 23.7692 26.5578C23.1591 26.5578 22.4193 26.6617 21.9966 26.6408C20.8157 26.5832 20.5841 26.3888 20.0088 26.3888Z" fill="url(#paint14_linear_2461_3649)"/>
<path d="M19.6573 15.9495C19.7048 14.6984 20.7021 14.0988 21.9621 13.8228C19.9509 13.8696 17.7854 14.2457 17.7202 15.9419C17.6569 17.6078 18.8378 18.1542 20.6641 18.2238C20.8654 18.2314 21.0546 18.239 21.2343 18.2453C20.2091 17.9452 19.6073 17.2684 19.6573 15.9495Z" fill="url(#paint15_linear_2461_3649)"/>
<path d="M19.8288 14.0492C18.6587 14.305 17.7613 14.8584 17.7202 15.9417C17.6677 17.3264 18.4758 17.9374 19.799 18.1445C17.1146 17.0725 18.0777 14.4322 19.8288 14.0492Z" fill="url(#paint16_linear_2461_3649)"/>
<path d="M16.713 27.2111C16.4035 27.9221 14.9309 27.9671 13.4235 27.3105C11.9161 26.6545 10.9453 25.5459 11.2548 24.8343C11.5642 24.1232 13.0368 24.0783 14.5442 24.7349C16.051 25.3914 17.0224 26.5001 16.713 27.2111Z" fill="url(#paint17_radial_2461_3649)"/>
<path d="M25.5815 16.2855C25.5663 17.2467 24.2817 17.7025 22.8761 17.788C21.7269 17.8576 20.4511 17.0441 20.484 16.1051C20.5169 15.1661 20.684 14.3341 23.0723 14.4171C24.4797 14.4659 25.5961 15.3465 25.5815 16.2855Z" fill="url(#paint18_radial_2461_3649)"/>
<path d="M25.8365 24.7342C25.8283 26.0651 24.3658 25.8099 22.9603 25.9023C21.1782 26.0201 19.9967 25.4648 19.9961 24.5252C19.9948 23.5856 20.6726 22.9012 23.0628 22.8974C24.4709 22.8955 25.8467 23.0247 25.8365 24.7342Z" fill="url(#paint19_radial_2461_3649)"/>
<path d="M24.5483 28.0899C24.5413 29.2245 23.2124 29.379 21.9531 29.3796C20.6937 29.3809 19.3268 28.7129 19.3262 27.912C19.3255 27.111 19.9311 26.5272 22.0682 26.5241C23.3269 26.5222 24.5572 26.6324 24.5483 28.0899Z" fill="url(#paint20_radial_2461_3649)"/>
<path d="M19.4741 23.9581C19.6741 22.443 20.836 22.5316 22.1681 22.3746C20.6348 22.26 19.9912 22.2435 19.9912 22.2435C19.8482 22.2296 19.688 22.229 19.5216 22.2461C19.0236 22.3556 18.4591 22.5823 18.1237 23.0078C18.0098 23.1698 17.9174 23.361 17.8566 23.5877C17.8503 23.6207 17.8439 23.6542 17.8402 23.6884C17.732 24.5634 18.1566 25.6866 19.6747 25.9526C19.8937 25.9912 20.1298 26.0273 20.3772 26.0609C20.4955 26.076 20.6247 26.0919 20.7632 26.1096C20.8006 26.114 20.8379 26.1185 20.8759 26.1229C20.038 25.7272 19.3267 25.0718 19.4741 23.9581Z" fill="url(#paint21_linear_2461_3649)"/>
<path d="M19.8452 22.2337C19.7421 22.2306 19.6326 22.2344 19.5206 22.2457C19.0181 22.3565 18.4486 22.5864 18.1151 23.0189C18.0049 23.1784 17.9163 23.3671 17.8569 23.5881C17.8506 23.621 17.8461 23.6539 17.8404 23.6881C17.6866 24.5498 18.1132 25.5654 19.4396 25.9016C17.1766 24.653 18.1423 22.235 19.8452 22.2337Z" fill="url(#paint22_linear_2461_3649)"/>
<path d="M21.1622 26.2627C20.4933 26.1646 20.2187 26.031 19.7238 26.031C19.058 26.031 18.2354 26.6186 18.2354 27.5981C18.2354 27.9539 18.2695 28.2755 18.3803 28.5548C18.4929 28.7852 18.6568 29.0011 18.8815 29.1835C19.1283 29.3557 19.4637 29.4893 19.9187 29.5766C20.2243 29.6356 20.5699 29.6704 20.9319 29.6875C20.2332 29.2816 19.0498 29.0632 19.2979 27.7044C19.5719 26.2038 20.4673 26.4065 21.1622 26.2627Z" fill="url(#paint23_linear_2461_3649)"/>
<path d="M19.694 26.0322C19.034 26.0493 18.2354 26.6337 18.2354 27.5987C18.2354 28.4958 18.4499 29.1796 19.5852 29.4988C17.812 28.3591 18.3809 26.4362 19.694 26.0322Z" fill="url(#paint24_linear_2461_3649)"/>
<path d="M27.3195 16.3602C27.322 16.1348 27.2967 15.9303 27.2492 15.7435C27.4258 16.5286 26.7265 17.3087 24.8729 17.6873C23.6446 17.9381 20.3823 18.2515 18.125 17.3549C18.6123 17.9438 19.509 18.1793 20.6646 18.2236C22.4909 18.2933 23.4041 18.3281 24.1604 18.3566C24.9166 18.3863 27.2954 18.3718 27.3195 16.3602Z" fill="url(#paint25_linear_2461_3649)"/>
<path d="M27.0255 24.3549C27.023 23.5116 26.3908 22.4143 25.0491 22.3757C23.6791 22.3364 22.9652 22.3573 22.1843 22.2649C21.2458 22.1541 20.8047 22.1705 20.3352 22.1573C19.9801 22.1471 19.1043 22.2541 18.5088 22.6245C19.1784 22.8569 20.2693 23.2064 21.8046 23.1082C25.4833 22.8715 26.53 23.3166 27.0255 24.3549Z" fill="url(#paint26_linear_2461_3649)"/>
<path d="M19.5464 18.3563C18.7636 18.3405 17.5201 18.8014 17.4878 20.428C17.4555 22.054 18.8775 22.4415 19.504 22.4541C20.1306 22.4668 22.3208 22.6162 25.0224 22.67C27.724 22.7238 28.0859 21.2733 28.1011 20.5135C28.1163 19.7531 27.6347 18.3785 26.0096 18.3456C21.3108 18.2512 19.5464 18.3563 19.5464 18.3563Z" fill="url(#paint27_linear_2461_3649)"/>
<path d="M19.9663 18.8281C19.2853 18.8148 18.2058 19.1681 18.181 20.4223C18.1558 21.6772 19.3929 21.9787 19.9372 21.9894C20.4821 22.0002 22.3862 22.1199 24.7347 22.1667C27.0831 22.2135 27.3951 21.0954 27.4065 20.5085C27.4185 19.9221 27.3376 18.861 25.9244 18.8325C21.8407 18.7515 19.9663 18.8281 19.9663 18.8281Z" fill="url(#paint28_linear_2461_3649)"/>
<path d="M19.168 20.2711C19.2465 18.6015 20.4115 18.5964 21.7266 18.3083C20.1888 18.3178 19.5464 18.3558 19.5464 18.3558C18.7636 18.34 17.5201 18.801 17.4878 20.4275C17.4555 22.0534 18.8775 22.4409 19.504 22.4536C19.7299 22.4581 20.1596 22.4802 20.7419 22.5093C19.8736 22.1516 19.1104 21.4994 19.168 20.2711Z" fill="url(#paint29_linear_2461_3649)"/>
<path d="M26.7253 20.444C26.7797 21.7736 25.3033 22.0237 23.8965 22.0908C22.4897 22.158 20.926 21.4469 20.8811 20.5086C20.8361 19.5703 21.481 18.8548 23.868 18.7389C25.2748 18.6712 26.6557 18.7358 26.7253 20.444Z" fill="url(#paint30_radial_2461_3649)"/>
<path d="M19.4003 18.359C18.6181 18.4008 17.5183 18.8998 17.4879 20.4275C17.4569 21.9737 18.7402 22.3998 19.4054 22.4486C16.8316 21.4096 17.6752 18.5123 19.4003 18.359Z" fill="url(#paint31_linear_2461_3649)"/>
<path d="M28.0968 20.3491C27.7576 22.7551 21.3995 22.3144 17.9639 21.7977C18.4278 22.2948 19.1175 22.4454 19.5042 22.4537C20.1307 22.4664 22.3209 22.6158 25.0225 22.6696C27.7241 22.7234 28.0861 21.2729 28.1013 20.5131C28.1019 20.4612 28.1006 20.4061 28.0968 20.3491Z" fill="url(#paint32_linear_2461_3649)"/>
<path d="M24.9115 25.7067C23.68 25.7612 20.4216 26.1664 18.0459 24.8932C18.3111 25.3857 18.8243 25.8043 19.6742 25.953C21.5974 26.2899 24.802 26.4666 25.9994 26.0183C26.5341 25.8182 27.0005 25.2579 27.0252 24.4088C26.9461 25.1471 26.243 25.6479 24.9115 25.7067Z" fill="url(#paint33_linear_2461_3649)"/>
<path d="M25.3268 28.3804C24.5199 28.9945 23.1252 29.3573 21.1127 29.0173C19.8699 28.8071 19.0181 28.7356 18.458 28.7204C18.682 29.1256 19.1143 29.4232 19.9192 29.5777C21.3488 29.8518 23.6397 29.6169 24.5009 29.3427C24.9433 29.2009 25.2015 28.8793 25.3268 28.3804Z" fill="url(#paint34_linear_2461_3649)"/>
<path d="M18.5 26.7171C19.9909 26.1738 20.7219 26.9799 22.3173 26.9799C23.974 26.9799 24.7638 26.3106 25.3523 26.947C25.1676 26.36 24.6385 26.2416 24.0709 26.2416C23.3659 26.2416 22.5103 26.3701 22.0211 26.3448C20.6567 26.2733 20.3897 26.0314 19.7239 26.0314C19.2929 26.0314 18.7968 26.2777 18.5 26.7171Z" fill="url(#paint35_linear_2461_3649)"/>
<path d="M6.07691 27.7487C7.22547 27.5917 9.83655 27.2783 10.2542 27.2783C6.46734 24.5703 8.15133 18.8104 9.54797 15.8973C9.74415 15.4883 9.86502 15.1527 9.93023 14.8678C8.67025 15.8289 7.50457 15.5516 5.97184 15.4199C3.67591 15.223 4.45871 27.9697 6.07691 27.7487Z" fill="url(#paint36_linear_2461_3649)"/>
<path d="M8.46412 25.1317C8.07241 24.6094 8.41161 25.7326 8.72548 26.5424C8.99191 27.2313 6.94851 26.8241 5.38477 26.9932C5.58916 27.4978 5.82268 27.7834 6.07645 27.7486C7.22505 27.5916 9.83614 27.2781 10.2538 27.2781C9.66462 26.7773 8.85521 25.6541 8.46412 25.1317Z" fill="url(#paint37_linear_2461_3649)"/>
<path d="M10.2534 27.279C9.92872 27.0023 9.53701 26.5363 9.18449 26.0862C9.18449 26.0862 7.28349 27.0593 5.24512 26.6016C5.47991 27.3461 5.76214 27.7919 6.07602 27.7488C7.22524 27.5924 9.83571 27.279 10.2534 27.279Z" fill="url(#paint38_linear_2461_3649)"/>
<path d="M17.4542 8.20461C16.71 8.36544 16.1069 7.3372 15.7665 6.13736C15.488 5.15599 15.8665 3.90613 16.5974 3.76556C17.3283 3.62437 18.0029 3.61804 18.406 5.69797C18.6427 6.92309 18.182 8.04757 17.4542 8.20461Z" fill="url(#paint39_radial_2461_3649)"/>
<path d="M19.6947 26.032C19.2852 26.0751 18.9144 26.2948 18.6593 26.5968C18.4005 26.9013 18.2796 27.2989 18.3062 27.6985C18.3087 28.1005 18.3695 28.5114 18.5973 28.8369C18.8233 29.1655 19.2029 29.3612 19.5858 29.4986C19.1909 29.4093 18.7777 29.2459 18.5131 28.8996C18.2448 28.557 18.1828 28.1107 18.1695 27.701C18.1518 27.2819 18.2853 26.8361 18.5809 26.5271C18.8675 26.215 19.2814 26.0238 19.6947 26.032Z" fill="#804B24"/>
<path d="M19.038 22.3878C18.7684 22.505 18.5197 22.6651 18.314 22.8646C18.1045 23.0615 17.9932 23.3312 17.9166 23.6048L17.9172 23.6003C17.8185 24.0992 17.902 24.6305 18.195 25.0452C18.4811 25.4656 18.9456 25.7404 19.4392 25.9012C18.931 25.8031 18.4191 25.5555 18.0976 25.1142C17.9387 24.897 17.8286 24.6431 17.7754 24.3778C17.7216 24.1126 17.7464 23.8352 17.7957 23.5763L17.797 23.5718C17.8773 23.2844 18.0204 22.9963 18.2564 22.8019C18.4823 22.6012 18.7595 22.4777 19.038 22.3878Z" fill="#804B24"/>
<path d="M19.4002 18.3583C18.9161 18.4133 18.4478 18.6147 18.1143 18.9534C17.7795 19.2922 17.5985 19.7588 17.5694 20.2343C17.5207 20.7079 17.5973 21.2024 17.8681 21.5956C18.1352 21.99 18.5718 22.2547 19.0389 22.3915C18.5604 22.3041 18.0845 22.0679 17.782 21.657C17.4732 21.2492 17.3916 20.7155 17.4327 20.2229C17.4732 19.7278 17.6675 19.2225 18.0409 18.8787C18.4104 18.5311 18.9123 18.3634 19.4002 18.3583Z" fill="#804B24"/>
<path d="M19.8295 14.0492C19.3119 14.191 18.7974 14.3867 18.3892 14.7229C17.9779 15.0572 17.7551 15.5732 17.7893 16.1019C17.7823 16.6268 17.9538 17.1624 18.3525 17.51C18.7455 17.8621 19.2758 18.033 19.7992 18.1445C19.2682 18.0818 18.7157 17.9488 18.2835 17.5892C17.8412 17.2346 17.6532 16.647 17.6526 16.1032C17.6241 15.5504 17.8728 14.9717 18.3234 14.6412C18.7651 14.3025 19.3011 14.1429 19.8295 14.0492Z" fill="#804B24"/>
<path d="M18.0469 24.8926C18.4032 25.5099 19.0879 25.8297 19.7644 25.9208C20.4529 26.0272 21.1465 26.1 21.842 26.1443C22.5362 26.2032 23.2329 26.2399 23.9297 26.2374C24.2777 26.233 24.6264 26.2241 24.9726 26.1899C25.3188 26.162 25.6681 26.1266 26.0009 26.0171C25.3422 26.2646 24.6277 26.3039 23.9316 26.3286C23.2317 26.3463 22.5311 26.3267 21.8325 26.2811C21.1351 26.2209 20.4396 26.1329 19.7498 26.0107C19.403 25.9537 19.0575 25.8461 18.7537 25.6612C18.4512 25.4745 18.2032 25.2054 18.0469 24.8926Z" fill="#804B24"/>
<path d="M17.9639 21.7976C18.2309 22.0635 18.5746 22.2389 18.9334 22.3282C19.2903 22.4352 19.6656 22.4118 20.0427 22.4289L22.295 22.4941L24.546 22.6049C25.2928 22.6505 26.0528 22.6606 26.7685 22.4156C26.0711 22.7132 25.2877 22.7372 24.5441 22.696L22.2919 22.6309L20.0408 22.5194C19.6706 22.4941 19.2814 22.5118 18.915 22.3921C18.553 22.2788 18.2145 22.0793 17.9639 21.7976Z" fill="#804B24"/>
<path d="M26.01 18.3452C25.4715 18.3465 24.9323 18.3617 24.3937 18.3567L22.7781 18.3598L21.1631 18.382C20.6252 18.3851 20.086 18.3883 19.55 18.4098H19.5456C19.0159 18.401 18.4673 18.582 18.0857 18.9613C17.6965 19.3368 17.5129 19.8832 17.4883 20.4277C17.4927 20.1548 17.5218 19.8794 17.6053 19.6154C17.6902 19.352 17.8351 19.1057 18.0319 18.9075C18.4242 18.5042 18.99 18.3041 19.5481 18.3028H19.5437C20.6227 18.2376 21.7004 18.237 22.7781 18.2541C23.8565 18.2661 24.9336 18.2864 26.01 18.3452Z" fill="#804B24"/>
<defs>
<linearGradient id="paint0_linear_2461_3649" x1="22.1382" y1="16.1951" x2="14.2832" y2="16.5103" gradientUnits="userSpaceOnUse">
<stop offset="0.00132565" stop-color="#FFCB4B"/>
<stop offset="1" stop-color="#FFD748"/>
</linearGradient>
<linearGradient id="paint1_linear_2461_3649" x1="13.6605" y1="27.0871" x2="13.5025" y2="22.9565" gradientUnits="userSpaceOnUse">
<stop offset="0.00132565" stop-color="#FFCB4B"/>
<stop offset="1" stop-color="#FFD748"/>
</linearGradient>
<linearGradient id="paint2_linear_2461_3649" x1="12.6533" y1="11.5374" x2="18.5707" y2="19.9977" gradientUnits="userSpaceOnUse">
<stop offset="0.00132565" stop-color="#FFCB4B"/>
<stop offset="1" stop-color="#FFD748"/>
</linearGradient>
<linearGradient id="paint3_linear_2461_3649" x1="8.37125" y1="8.16664" x2="23.5267" y2="9.30172" gradientUnits="userSpaceOnUse">
<stop offset="0.3118" stop-color="#FFBC47" stop-opacity="0"/>
<stop offset="1" stop-color="#FF8900"/>
</linearGradient>
<linearGradient id="paint4_linear_2461_3649" x1="8.08274" y1="21.6413" x2="27.9844" y2="21.6413" gradientUnits="userSpaceOnUse">
<stop stop-color="#FFBC47" stop-opacity="0"/>
<stop offset="1" stop-color="#FFA754"/>
</linearGradient>
<linearGradient id="paint5_linear_2461_3649" x1="4.87303" y1="21.6712" x2="44.1908" y2="22.9237" gradientUnits="userSpaceOnUse">
<stop stop-color="#FFBC47" stop-opacity="0"/>
<stop offset="1" stop-color="#C86F34"/>
</linearGradient>
<linearGradient id="paint6_linear_2461_3649" x1="11.121" y1="26.809" x2="17.6233" y2="23.2855" gradientUnits="userSpaceOnUse">
<stop stop-color="#FFBC47" stop-opacity="0"/>
<stop offset="1" stop-color="#C86F34"/>
</linearGradient>
<linearGradient id="paint7_linear_2461_3649" x1="18.5689" y1="21.8065" x2="23.9909" y2="21.0944" gradientUnits="userSpaceOnUse">
<stop stop-color="#643800" stop-opacity="0"/>
<stop offset="1" stop-color="#643800"/>
</linearGradient>
<linearGradient id="paint8_linear_2461_3649" x1="8.94675" y1="9.83636" x2="10.1228" y2="29.3093" gradientUnits="userSpaceOnUse">
<stop stop-color="#FFBC47" stop-opacity="0"/>
<stop offset="1" stop-color="#FFA754"/>
</linearGradient>
<linearGradient id="paint9_linear_2461_3649" x1="26.9476" y1="16.0899" x2="19.2536" y2="16.0899" gradientUnits="userSpaceOnUse">
<stop offset="0.00132565" stop-color="#FFBC47"/>
<stop offset="1" stop-color="#FFD748"/>
</linearGradient>
<linearGradient id="paint10_linear_2461_3649" x1="26.948" y1="24.2213" x2="19.2497" y2="24.2213" gradientUnits="userSpaceOnUse">
<stop offset="0.00132565" stop-color="#FFBC47"/>
<stop offset="1" stop-color="#FFD748"/>
</linearGradient>
<linearGradient id="paint11_linear_2461_3649" x1="26.9482" y1="27.8652" x2="19.2542" y2="27.8652" gradientUnits="userSpaceOnUse">
<stop offset="0.00132565" stop-color="#FFBC47"/>
<stop offset="1" stop-color="#FFD748"/>
</linearGradient>
<linearGradient id="paint12_linear_2461_3649" x1="18.2165" y1="16.128" x2="22.224" y2="16.0367" gradientUnits="userSpaceOnUse">
<stop offset="0.00132565" stop-color="#FFCB4B"/>
<stop offset="1" stop-color="#FFD748"/>
</linearGradient>
<linearGradient id="paint13_linear_2461_3649" x1="25.2254" y1="24.2756" x2="21.1404" y2="24.2756" gradientUnits="userSpaceOnUse">
<stop offset="0.00132565" stop-color="#FFCB4B"/>
<stop offset="1" stop-color="#FFD748"/>
</linearGradient>
<linearGradient id="paint14_linear_2461_3649" x1="25.2254" y1="27.8655" x2="21.1404" y2="27.8655" gradientUnits="userSpaceOnUse">
<stop offset="0.00132565" stop-color="#FFCB4B"/>
<stop offset="1" stop-color="#FFD748"/>
</linearGradient>
<linearGradient id="paint15_linear_2461_3649" x1="20.2386" y1="16.0339" x2="18.0589" y2="16.0339" gradientUnits="userSpaceOnUse">
<stop offset="0.00132565" stop-color="#FBA23B" stop-opacity="0"/>
<stop offset="1" stop-color="#FBA23B"/>
</linearGradient>
<linearGradient id="paint16_linear_2461_3649" x1="19.8463" y1="16.097" x2="17.3397" y2="16.097" gradientUnits="userSpaceOnUse">
<stop offset="0.00132565" stop-color="#FFBC47"/>
<stop offset="1" stop-color="#E89043"/>
</linearGradient>
<radialGradient id="paint17_radial_2461_3649" cx="0" cy="0" r="1" gradientUnits="userSpaceOnUse" gradientTransform="translate(13.7786 25.4749) rotate(23.5251) scale(3.05996 1.4207)">
<stop stop-color="#FBE07A"/>
<stop offset="1" stop-color="#FFD748" stop-opacity="0"/>
</radialGradient>
<radialGradient id="paint18_radial_2461_3649" cx="0" cy="0" r="1" gradientUnits="userSpaceOnUse" gradientTransform="translate(23.0364 16.1092) rotate(2.02718) scale(2.61816 1.71838)">
<stop stop-color="#FBE07A"/>
<stop offset="1" stop-color="#FFD748"/>
</radialGradient>
<radialGradient id="paint19_radial_2461_3649" cx="0" cy="0" r="1" gradientUnits="userSpaceOnUse" gradientTransform="translate(22.9097 24.5459) rotate(-0.0544055) scale(2.81174 1.51574)">
<stop stop-color="#FBE07A"/>
<stop offset="1" stop-color="#FFD748" stop-opacity="0"/>
</radialGradient>
<radialGradient id="paint20_radial_2461_3649" cx="0" cy="0" r="1" gradientUnits="userSpaceOnUse" gradientTransform="translate(21.9372 27.9537) rotate(-0.0539601) scale(2.57437 1.61123)">
<stop stop-color="#FBE07A"/>
<stop offset="1" stop-color="#FFD748" stop-opacity="0"/>
</radialGradient>
<linearGradient id="paint21_linear_2461_3649" x1="20.4994" y1="24.1779" x2="17.3404" y2="24.1779" gradientUnits="userSpaceOnUse">
<stop offset="0.00132565" stop-color="#FBA23B" stop-opacity="0"/>
<stop offset="1" stop-color="#FBA23B"/>
</linearGradient>
<linearGradient id="paint22_linear_2461_3649" x1="19.8282" y1="24.0671" x2="18.1266" y2="24.0671" gradientUnits="userSpaceOnUse">
<stop offset="0.00132565" stop-color="#FFBC47"/>
<stop offset="1" stop-color="#FBA23B"/>
</linearGradient>
<linearGradient id="paint23_linear_2461_3649" x1="20.3855" y1="27.8862" x2="16.6912" y2="27.2077" gradientUnits="userSpaceOnUse">
<stop offset="0.00132565" stop-color="#FBA23B" stop-opacity="0"/>
<stop offset="1" stop-color="#FBA23B"/>
</linearGradient>
<linearGradient id="paint24_linear_2461_3649" x1="20.0035" y1="27.7654" x2="18.442" y2="27.7654" gradientUnits="userSpaceOnUse">
<stop offset="0.00132565" stop-color="#FFBC47"/>
<stop offset="1" stop-color="#FBA23B"/>
</linearGradient>
<linearGradient id="paint25_linear_2461_3649" x1="22.4931" y1="15.6056" x2="23.4861" y2="20.4116" gradientUnits="userSpaceOnUse">
<stop stop-color="#FFBC47" stop-opacity="0"/>
<stop offset="1" stop-color="#C86F34"/>
</linearGradient>
<linearGradient id="paint26_linear_2461_3649" x1="23.2471" y1="25.101" x2="22.1637" y2="21.1918" gradientUnits="userSpaceOnUse">
<stop stop-color="#FFBC47" stop-opacity="0"/>
<stop offset="1" stop-color="#C86F34"/>
</linearGradient>
<linearGradient id="paint27_linear_2461_3649" x1="26.948" y1="20.4885" x2="19.254" y2="20.4885" gradientUnits="userSpaceOnUse">
<stop offset="0.00132565" stop-color="#FFBC47"/>
<stop offset="1" stop-color="#FFD748"/>
</linearGradient>
<linearGradient id="paint28_linear_2461_3649" x1="18.9433" y1="20.2738" x2="24.8371" y2="20.489" gradientUnits="userSpaceOnUse">
<stop offset="0.00132565" stop-color="#FFCB4B"/>
<stop offset="0.7382" stop-color="#FFD748"/>
<stop offset="1" stop-color="#FFCB4B"/>
</linearGradient>
<linearGradient id="paint29_linear_2461_3649" x1="21.2436" y1="20.409" x2="16.8403" y2="20.409" gradientUnits="userSpaceOnUse">
<stop offset="0.00132565" stop-color="#FBA23B" stop-opacity="0"/>
<stop offset="1" stop-color="#FBA23B"/>
</linearGradient>
<radialGradient id="paint30_radial_2461_3649" cx="0" cy="0" r="1" gradientUnits="userSpaceOnUse" gradientTransform="translate(23.8002 20.4178) rotate(-2.73606) scale(2.87904 1.8897)">
<stop stop-color="#FBE07A"/>
<stop offset="1" stop-color="#FFD748" stop-opacity="0"/>
</radialGradient>
<linearGradient id="paint31_linear_2461_3649" x1="19.1969" y1="20.4037" x2="17.8066" y2="20.4037" gradientUnits="userSpaceOnUse">
<stop offset="0.00132565" stop-color="#FFBC47"/>
<stop offset="1" stop-color="#FBA23B"/>
</linearGradient>
<linearGradient id="paint32_linear_2461_3649" x1="22.8585" y1="19.9799" x2="23.6947" y2="25.2953" gradientUnits="userSpaceOnUse">
<stop stop-color="#FFBC47" stop-opacity="0"/>
<stop offset="1" stop-color="#C86F34"/>
</linearGradient>
<linearGradient id="paint33_linear_2461_3649" x1="22.2787" y1="24.092" x2="24.4213" y2="28.7406" gradientUnits="userSpaceOnUse">
<stop stop-color="#FFBC47" stop-opacity="0"/>
<stop offset="1" stop-color="#C86F34"/>
</linearGradient>
<linearGradient id="paint34_linear_2461_3649" x1="21.8521" y1="28.17" x2="22.1657" y2="31.1085" gradientUnits="userSpaceOnUse">
<stop stop-color="#FFBC47" stop-opacity="0"/>
<stop offset="1" stop-color="#C86F34"/>
</linearGradient>
<linearGradient id="paint35_linear_2461_3649" x1="21.9263" y1="27.7241" x2="21.9263" y2="25.5985" gradientUnits="userSpaceOnUse">
<stop stop-color="#FFBC47" stop-opacity="0"/>
<stop offset="1" stop-color="#C86F34"/>
</linearGradient>
<linearGradient id="paint36_linear_2461_3649" x1="7.57548" y1="21.856" x2="0.913382" y2="31.9224" gradientUnits="userSpaceOnUse">
<stop stop-color="#C86F34" stop-opacity="0"/>
<stop offset="1" stop-color="#C86F34"/>
</linearGradient>
<linearGradient id="paint37_linear_2461_3649" x1="7.13521" y1="24.0824" x2="8.23279" y2="28.9798" gradientUnits="userSpaceOnUse">
<stop stop-color="#FFBC47" stop-opacity="0"/>
<stop offset="1" stop-color="#C86F34"/>
</linearGradient>
<linearGradient id="paint38_linear_2461_3649" x1="7.80006" y1="25.0015" x2="7.64323" y2="30.996" gradientUnits="userSpaceOnUse">
<stop stop-color="#FFBC47" stop-opacity="0"/>
<stop offset="1" stop-color="#C86F34"/>
</linearGradient>
<radialGradient id="paint39_radial_2461_3649" cx="0" cy="0" r="1" gradientUnits="userSpaceOnUse" gradientTransform="translate(17.096 5.97187) rotate(79.0714) scale(2.76057 1.61943)">
<stop stop-color="#FBE07A"/>
<stop offset="1" stop-color="#FFD748" stop-opacity="0"/>
</radialGradient>
</defs>
</svg>
