<svg width="46" height="46" viewBox="0 0 46 46" fill="none" xmlns="http://www.w3.org/2000/svg">
<path d="M23.0003 21.7222C28.9987 21.7222 33.8614 16.8596 33.8614 10.8611C33.8614 4.86269 28.9987 0 23.0003 0C17.0019 0 12.1392 4.86269 12.1392 10.8611C12.1392 16.8596 17.0019 21.7222 23.0003 21.7222Z" fill="#FD9808"/>
<path d="M37.0556 46C39.8784 46 42.1668 43.7116 42.1668 40.8889C42.1668 30.3035 33.5854 21.7223 23.0001 21.7223C12.4148 21.7223 3.8335 30.3035 3.8335 40.8889C3.8335 43.7116 6.12191 46 8.94462 46H37.0556Z" fill="#FD9808"/>
<path d="M33.8612 10.8611C33.8612 4.8627 28.9985 0 23.0001 0H23V21.7222H23.0001C28.9985 21.7222 33.8612 16.8595 33.8612 10.8611Z" fill="#FF7474"/>
<path d="M23.0001 21.7223L23 46H37.0557C39.8784 46 42.1668 43.7116 42.1668 40.8889C42.1667 30.3035 33.5855 21.7223 23.0001 21.7223Z" fill="#FF7474"/>
</svg>
