<svg width="18" height="19" viewBox="0 0 18 19" fill="none" xmlns="http://www.w3.org/2000/svg">
<g clip-path="url(#clip0_0_162)">
<path d="M16.4565 17.7353C16.4565 18.2022 16.0889 18.569 15.6081 18.569H2.57243C2.12 18.569 1.72412 18.2022 1.72412 17.7353V6.16251C1.72412 5.69559 2.09172 5.32874 2.57243 5.32874H15.6081C16.0606 5.32874 16.4565 5.69559 16.4565 6.16251V17.7353Z" fill="#E1E0A6"/>
<path d="M15.6082 18.9025H2.57249C1.95039 18.9025 1.44141 18.3689 1.44141 17.7353V6.16252C1.44141 5.52885 1.95039 4.99524 2.57249 4.99524H15.6082C16.2303 4.99524 16.7393 5.52885 16.7393 6.16252V17.7353C16.7393 18.3689 16.2303 18.9025 15.6082 18.9025ZM2.57249 5.66226C2.26144 5.66226 2.00695 5.89571 2.00695 6.16252V17.7353C2.00695 18.0021 2.26144 18.2355 2.57249 18.2355H15.6082C15.9192 18.2355 16.1737 18.0021 16.1737 17.7353V6.16252C16.1737 5.89571 15.9192 5.66226 15.6082 5.66226H2.57249Z" fill="#231C1C"/>
<path d="M17.8423 8.1969C17.8423 8.76387 17.5313 9.23078 17.1354 9.23078L9.07642 5.06192L1.01747 9.23078C0.621594 9.23078 0.310547 8.76387 0.310547 8.1969V6.72947C0.310547 6.1625 0.621594 5.69559 1.01747 5.69559L9.07642 0.893066L17.1354 5.69559C17.5313 5.69559 17.8423 6.1625 17.8423 6.72947V8.1969Z" fill="#EAF6FF"/>
<path d="M17.1354 9.56427C17.1072 9.56427 17.0506 9.56427 17.0223 9.53091L9.07648 5.42876L1.13064 9.53091C1.10236 9.56427 1.04581 9.56427 1.01753 9.56427C0.480265 9.56427 0.027832 8.96395 0.027832 8.19688V6.72944C0.027832 5.99572 0.423711 5.39541 0.932697 5.36206L8.9351 0.592884C9.01993 0.559533 9.10476 0.559533 9.18959 0.592884L17.192 5.36206C17.701 5.42876 18.0969 5.99572 18.0969 6.72944V8.19688C18.1251 8.9306 17.701 9.56427 17.1354 9.56427ZM9.07648 1.2599L1.15891 5.99572C1.13064 6.02907 1.07408 6.02907 1.04581 6.02907C0.819589 6.02907 0.62165 6.36258 0.62165 6.72944V8.19688C0.62165 8.56374 0.791312 8.8639 0.989251 8.89725L8.99165 4.76174C9.07648 4.72839 9.13303 4.72839 9.21787 4.76174L17.2203 8.89725C17.4182 8.8639 17.5879 8.56374 17.5879 8.19688V6.72944C17.5879 6.32923 17.3899 6.02907 17.1637 6.02907C17.1072 6.02907 17.0789 6.02907 17.0223 5.99572L9.07648 1.2599Z" fill="#231C1C"/>
<path d="M11.3387 18.6023H7.4082V13.0327C7.4082 12.5658 7.74753 12.2323 8.14341 12.2323H10.6035C10.9994 12.2323 11.3387 12.5658 11.3387 13.0327V18.6023Z" fill="#FDE8C2"/>
<path d="M11.3383 18.9358H7.40777C7.23811 18.9358 7.125 18.8024 7.125 18.6023V13.0327C7.125 12.3991 7.54916 11.8988 8.14297 11.8988H10.6031C11.1686 11.8988 11.621 12.3657 11.621 13.0327V18.569C11.621 18.7691 11.5079 18.9358 11.3383 18.9358ZM7.69054 18.2688H11.0555V13.0327C11.0555 12.7326 10.8293 12.5658 10.6031 12.5658H8.14297C7.91676 12.5658 7.69054 12.6992 7.69054 13.0327V18.2688Z" fill="#231C1C"/>
</g>
<defs>
<clipPath id="clip0_0_162">
<rect width="18" height="19" fill="white"/>
</clipPath>
</defs>
</svg>
