<svg width="135" height="135" viewBox="0 0 135 135" fill="none" xmlns="http://www.w3.org/2000/svg">
<g clip-path="url(#clip0_2314_1023)">
<path d="M67.5 135C104.779 135 135 104.779 135 67.5C135 30.2208 104.779 0 67.5 0C30.2208 0 0 30.2208 0 67.5C0 104.779 30.2208 135 67.5 135Z" fill="#7AB9E8"/>
<path d="M67.5 0V135C104.779 135 135 104.779 135 67.5C135 30.2208 104.779 0 67.5 0Z" fill="#579ADF"/>
<path d="M74.7318 59.347H60.2676V106.071H74.7318V59.347Z" fill="#DFDFE1"/>
<path d="M32.3535 64.0609H102.644L67.5028 28.9285L32.3535 64.0609Z" fill="#F2F2F4"/>
<path d="M67.5 64.0609H102.644L67.5029 28.9285L67.5 28.9314V64.0609Z" fill="#DFDFE1"/>
</g>
<defs>
<clipPath id="clip0_2314_1023">
<rect width="135" height="135" fill="white"/>
</clipPath>
</defs>
</svg>
