<svg width="21" height="30" viewBox="0 0 21 30" fill="none" xmlns="http://www.w3.org/2000/svg">
<g clip-path="url(#clip0_2776_2638)">
<path d="M15.2181 11.1702L21.4676 5.22395V0H0.46875V5.22395L6.71827 11.1702L7.66653 9.70331L8.36905 11.3344L5.98325 26.7102L10.9682 30.0001L15.9531 26.7102L13.5673 11.3344L14.2698 9.70331L15.2181 11.1702ZM19.6074 4.42383L15.5616 8.27332L13.9249 5.74145L19.6073 2.52778V4.42383H19.6074ZM16.9981 1.8635L12.3627 4.48501H9.5737L4.93833 1.8635H16.9981ZM6.37476 8.27326L2.32893 4.42376V2.52771L8.01134 5.74138L6.37476 8.27326ZM10.9682 27.7685L8.00495 25.8129L10.126 12.1438H11.8104L13.9314 25.8129L10.9682 27.7685ZM11.9954 10.2803H9.94097L8.88234 7.82242L9.83506 6.34851H12.1013L13.054 7.82242L11.9954 10.2803Z" fill="#2D21CD"/>
</g>
<defs>
<clipPath id="clip0_2776_2638">
<rect width="21" height="30" fill="white"/>
</clipPath>
</defs>
</svg>
