<svg width="29" height="29" viewBox="0 0 29 29" fill="none" xmlns="http://www.w3.org/2000/svg">
<path d="M9.88215 23.7564H19.1183C19.2953 22.3508 20.0132 21.7537 20.9096 20.8836C22.1932 19.6374 23.7907 18.0866 23.7907 14.2368C23.7907 11.7748 22.8135 9.53437 21.0391 7.92815C19.3277 6.37901 17.0057 5.52588 14.5008 5.52588C11.9959 5.52588 9.67388 6.37901 7.96258 7.92815C6.18816 9.53437 5.21094 11.7748 5.21094 14.2368C5.21094 18.0923 6.81181 19.6522 8.09819 20.9056C8.98796 21.7726 9.70212 22.3765 9.88215 23.7564Z" fill="#FFDA44"/>
<path d="M15.6449 0H13.3555V3.05263H15.6449V0Z" fill="#FFEB99"/>
<path d="M23.0828 2.92476L21.1777 1.65479L19.6514 3.94443L21.5565 5.2144L23.0828 2.92476Z" fill="#FFE477"/>
<path d="M27.6362 9.52927L27.3125 7.2627L24.6413 7.64421L24.9651 9.91079L27.6362 9.52927Z" fill="#FFE477"/>
<path d="M4.36035 7.64275L1.68945 7.26123L1.36572 9.52758L4.03661 9.9091L4.36035 7.64275Z" fill="#FFEB99"/>
<path d="M9.3447 3.94443L7.81836 1.65479L5.91329 2.92476L7.43962 5.2144L9.3447 3.94443Z" fill="#FFEB99"/>
<path d="M21.0382 7.92815C19.3269 6.37901 17.0049 5.52588 14.5 5.52588V23.7564H19.1176C19.2945 22.3508 20.0124 21.7537 20.9087 20.8836C22.1923 19.6374 23.7898 18.0866 23.7898 14.2368C23.7899 11.7748 22.8127 9.53437 21.0382 7.92815Z" fill="#FFCD00"/>
<path d="M17.6907 26.3779H11.3125V28.9998H17.6907V26.3779Z" fill="#C9E3F7"/>
<path d="M18.7998 24.4116H10.2031V27.0335H18.7998V24.4116Z" fill="#C9E3F7"/>
<path d="M19.9089 22.4453H9.09375V25.0671H19.9089V22.4453Z" fill="#C9E3F7"/>
<path d="M14.5 22.4453V29H17.6891V27.0336H18.7983V25.0672H19.9076V22.4453H14.5Z" fill="#78B9EB"/>
<path d="M15.6447 0H14.5V3.05263H15.6447V0Z" fill="#FFE477"/>
</svg>
