<svg width="18" height="22" viewBox="0 0 18 22" fill="none" xmlns="http://www.w3.org/2000/svg">
<g clip-path="url(#clip0_0_152)">
<path d="M17.5 6.58765H0.5V19.2656C0.5 20.4278 1.45625 21.3786 2.625 21.3786H15.375C16.5437 21.3786 17.5 20.4278 17.5 19.2656V6.58765Z" fill="#616161"/>
<path d="M15.375 0.248535H2.625C1.45625 0.248535 0.5 1.19938 0.5 2.36153V7.11577H17.5V2.36153C17.5 1.19938 16.5437 0.248535 15.375 0.248535Z" fill="#424242"/>
<path d="M15.375 5.53099H2.625C2.30625 5.53099 2.09375 5.31969 2.09375 5.00274V2.3615C2.09375 2.04455 2.30625 1.83325 2.625 1.83325H15.375C15.6937 1.83325 15.9062 2.04455 15.9062 2.3615V5.00274C15.9062 5.31969 15.6937 5.53099 15.375 5.53099Z" fill="#9CCC65"/>
<path d="M13.7812 3.41809H14.8437V4.47459H13.7812V3.41809ZM11.6562 3.41809H12.7187V4.47459H11.6562V3.41809Z" fill="#33691E"/>
<path d="M15.375 10.2854H13.7812C13.4625 10.2854 13.25 10.0741 13.25 9.75711V8.70061C13.25 8.38366 13.4625 8.17236 13.7812 8.17236H15.375C15.6937 8.17236 15.9062 8.38366 15.9062 8.70061V9.75711C15.9062 10.0741 15.6937 10.2854 15.375 10.2854Z" fill="#FF5252"/>
<path d="M4.21875 10.2854H2.625C2.30625 10.2854 2.09375 10.0741 2.09375 9.75711V8.70061C2.09375 8.38366 2.30625 8.17236 2.625 8.17236H4.21875C4.5375 8.17236 4.75 8.38366 4.75 8.70061V9.75711C4.75 10.0741 4.5375 10.2854 4.21875 10.2854ZM7.9375 10.2854H6.34375C6.025 10.2854 5.8125 10.0741 5.8125 9.75711V8.70061C5.8125 8.38366 6.025 8.17236 6.34375 8.17236H7.9375C8.25625 8.17236 8.46875 8.38366 8.46875 8.70061V9.75711C8.46875 10.0741 8.25625 10.2854 7.9375 10.2854ZM11.6563 10.2854H10.0625C9.74375 10.2854 9.53125 10.0741 9.53125 9.75711V8.70061C9.53125 8.38366 9.74375 8.17236 10.0625 8.17236H11.6563C11.975 8.17236 12.1875 8.38366 12.1875 8.70061V9.75711C12.1875 10.0741 11.975 10.2854 11.6563 10.2854ZM4.21875 13.4548H2.625C2.30625 13.4548 2.09375 13.2435 2.09375 12.9266V11.8701C2.09375 11.5532 2.30625 11.3419 2.625 11.3419H4.21875C4.5375 11.3419 4.75 11.5532 4.75 11.8701V12.9266C4.75 13.2435 4.5375 13.4548 4.21875 13.4548ZM7.9375 13.4548H6.34375C6.025 13.4548 5.8125 13.2435 5.8125 12.9266V11.8701C5.8125 11.5532 6.025 11.3419 6.34375 11.3419H7.9375C8.25625 11.3419 8.46875 11.5532 8.46875 11.8701V12.9266C8.46875 13.2435 8.25625 13.4548 7.9375 13.4548ZM11.6563 13.4548H10.0625C9.74375 13.4548 9.53125 13.2435 9.53125 12.9266V11.8701C9.53125 11.5532 9.74375 11.3419 10.0625 11.3419H11.6563C11.975 11.3419 12.1875 11.5532 12.1875 11.8701V12.9266C12.1875 13.2435 11.975 13.4548 11.6563 13.4548ZM4.21875 16.6243H2.625C2.30625 16.6243 2.09375 16.413 2.09375 16.0961V15.0396C2.09375 14.7226 2.30625 14.5113 2.625 14.5113H4.21875C4.5375 14.5113 4.75 14.7226 4.75 15.0396V16.0961C4.75 16.413 4.5375 16.6243 4.21875 16.6243ZM7.9375 16.6243H6.34375C6.025 16.6243 5.8125 16.413 5.8125 16.0961V15.0396C5.8125 14.7226 6.025 14.5113 6.34375 14.5113H7.9375C8.25625 14.5113 8.46875 14.7226 8.46875 15.0396V16.0961C8.46875 16.413 8.25625 16.6243 7.9375 16.6243ZM11.6563 16.6243H10.0625C9.74375 16.6243 9.53125 16.413 9.53125 16.0961V15.0396C9.53125 14.7226 9.74375 14.5113 10.0625 14.5113H11.6563C11.975 14.5113 12.1875 14.7226 12.1875 15.0396V16.0961C12.1875 16.413 11.975 16.6243 11.6563 16.6243ZM4.21875 19.7938H2.625C2.30625 19.7938 2.09375 19.5825 2.09375 19.2656V18.2091C2.09375 17.8921 2.30625 17.6808 2.625 17.6808H4.21875C4.5375 17.6808 4.75 17.8921 4.75 18.2091V19.2656C4.75 19.5825 4.5375 19.7938 4.21875 19.7938ZM7.9375 19.7938H6.34375C6.025 19.7938 5.8125 19.5825 5.8125 19.2656V18.2091C5.8125 17.8921 6.025 17.6808 6.34375 17.6808H7.9375C8.25625 17.6808 8.46875 17.8921 8.46875 18.2091V19.2656C8.46875 19.5825 8.25625 19.7938 7.9375 19.7938ZM11.6563 19.7938H10.0625C9.74375 19.7938 9.53125 19.5825 9.53125 19.2656V18.2091C9.53125 17.8921 9.74375 17.6808 10.0625 17.6808H11.6563C11.975 17.6808 12.1875 17.8921 12.1875 18.2091V19.2656C12.1875 19.5825 11.975 19.7938 11.6563 19.7938Z" fill="#E0E0E0"/>
<path d="M15.375 13.4548H13.7812C13.4625 13.4548 13.25 13.2435 13.25 12.9265V11.87C13.25 11.5531 13.4625 11.3418 13.7812 11.3418H15.375C15.6937 11.3418 15.9062 11.5531 15.9062 11.87V12.9265C15.9062 13.2435 15.6937 13.4548 15.375 13.4548ZM15.375 16.6243H13.7812C13.4625 16.6243 13.25 16.413 13.25 16.096V15.0395C13.25 14.7226 13.4625 14.5113 13.7812 14.5113H15.375C15.6937 14.5113 15.9062 14.7226 15.9062 15.0395V16.096C15.9062 16.413 15.6937 16.6243 15.375 16.6243ZM15.375 19.7938H13.7812C13.4625 19.7938 13.25 19.5825 13.25 19.2655V18.209C13.25 17.8921 13.4625 17.6808 13.7812 17.6808H15.375C15.6937 17.6808 15.9062 17.8921 15.9062 18.209V19.2655C15.9062 19.5825 15.6937 19.7938 15.375 19.7938Z" fill="#BDBDBD"/>
</g>
<defs>
<clipPath id="clip0_0_152">
<rect width="18" height="22" fill="white"/>
</clipPath>
</defs>
</svg>
