<svg width="147" height="147" viewBox="0 0 147 147" fill="none" xmlns="http://www.w3.org/2000/svg">
<g clip-path="url(#clip0_2314_1016)">
<path d="M66.3951 73.21C66.3951 69.1324 69.7125 65.815 73.79 65.815V0C54.2351 0 35.8504 7.61532 22.0227 21.4427C8.19508 35.27 0.58006 53.6551 0.58006 73.2103C0.58006 87.0157 4.40739 100.353 11.676 111.972L0 147L35.0284 135.324C46.6467 142.593 59.9843 146.42 73.79 146.42V80.6049C69.7125 80.6049 66.3951 77.2875 66.3951 73.21ZM51.2869 80.6049C47.2093 80.6049 43.892 77.2875 43.892 73.21C43.892 69.1324 47.2093 65.815 51.2869 65.815C55.3645 65.815 58.6819 69.1324 58.6819 73.21C58.6819 77.2875 55.3645 80.6049 51.2869 80.6049Z" fill="#FFDA44"/>
<path d="M125.556 21.4427C111.729 7.61532 93.344 0 73.7891 0V65.815C77.8666 65.815 81.184 69.1324 81.184 73.21C81.184 77.2875 77.8666 80.6049 73.7891 80.6049V146.42C93.344 146.42 111.729 138.805 125.556 124.977C139.384 111.15 146.999 92.7652 146.999 73.2103C146.999 53.6551 139.384 35.2703 125.556 21.4427ZM96.2922 80.6049C92.2146 80.6049 88.8972 77.2875 88.8972 73.21C88.8972 69.1324 92.2146 65.815 96.2922 65.815C100.37 65.815 103.687 69.1324 103.687 73.21C103.687 77.2875 100.37 80.6049 96.2922 80.6049Z" fill="#FFCD00"/>
<path d="M51.2875 65.815C47.21 65.815 43.8926 69.1324 43.8926 73.2099C43.8926 77.2875 47.21 80.6049 51.2875 80.6049C55.3651 80.6049 58.6825 77.2875 58.6825 73.2099C58.6825 69.1324 55.3651 65.815 51.2875 65.815Z" fill="#2488FF"/>
<path d="M96.2934 65.815C92.2158 65.815 88.8984 69.1324 88.8984 73.2099C88.8984 77.2875 92.2158 80.6049 96.2934 80.6049C100.371 80.6049 103.688 77.2875 103.688 73.2099C103.688 69.1324 100.371 65.815 96.2934 65.815Z" fill="#2488FF"/>
<path d="M66.3945 73.2099C66.3945 77.2875 69.7119 80.6049 73.7895 80.6049C77.8671 80.6049 81.1844 77.2875 81.1844 73.2099C81.1844 69.1324 77.8671 65.815 73.7895 65.815C69.7119 65.815 66.3945 69.1324 66.3945 73.2099Z" fill="#2488FF"/>
</g>
<defs>
<clipPath id="clip0_2314_1016">
<rect width="147" height="147" fill="white"/>
</clipPath>
</defs>
</svg>
