<svg width="46" height="46" viewBox="0 0 46 46" fill="none" xmlns="http://www.w3.org/2000/svg">
<path d="M22.9998 21.7222C28.9982 21.7222 33.8609 16.8596 33.8609 10.8611C33.8609 4.86269 28.9982 0 22.9998 0C17.0014 0 12.1387 4.86269 12.1387 10.8611C12.1387 16.8596 17.0014 21.7222 22.9998 21.7222Z" fill="#13D4D4"/>
<path d="M37.0554 46.0004C39.8781 46.0004 42.1665 43.712 42.1665 40.8893C42.1665 30.3039 33.5852 21.7227 22.9999 21.7227C12.4146 21.7227 3.83325 30.3039 3.83325 40.8893C3.83325 43.712 6.12166 46.0004 8.94437 46.0004H37.0554Z" fill="#13D4D4"/>
<path d="M33.8612 10.8611C33.8612 4.8627 28.9985 0 23.0001 0H23V21.7222H23.0001C28.9985 21.7222 33.8612 16.8595 33.8612 10.8611Z" fill="#F6F6F6" fill-opacity="0.79"/>
<path d="M23.0001 21.7227L23 46.0004H37.0557C39.8784 46.0004 42.1668 43.712 42.1668 40.8893C42.1667 30.3039 33.5855 21.7227 23.0001 21.7227Z" fill="#F6F6F6" fill-opacity="0.79"/>
</svg>
