<svg width="29" height="30" viewBox="0 0 29 30" fill="none" xmlns="http://www.w3.org/2000/svg">
<g clip-path="url(#clip0_2477_2075)">
<path d="M10.8854 20.6247L11.9126 19.562L10.09 17.6765L9.06278 18.7392C8.65248 18.4884 8.20632 18.2937 7.73326 18.1678V16.6666H5.1556L5.15566 18.1678C4.68254 18.2939 4.23644 18.4885 3.82613 18.7393L2.79878 17.6765L0.976201 19.5621L2.00361 20.6247C1.76118 21.0492 1.57297 21.5107 1.4513 22.0002H0V24.6666L1.45136 24.6665C1.57308 25.156 1.76118 25.6174 2.00361 26.0419L0.976258 27.1047L2.79884 28.9901L3.82624 27.9273C4.23649 28.1781 4.68265 28.3728 5.1556 28.4986L5.15566 30H7.73314V28.4986C8.20626 28.3727 8.65236 28.178 9.06267 27.9273L10.0901 28.9901L11.9127 27.1046L10.8853 26.042C11.1277 25.6176 11.3159 25.156 11.4376 24.6666L12.8889 24.6665V22.0002H11.4377C11.316 21.5107 11.1278 21.0492 10.8854 20.6247ZM6.44451 25.5555C5.25806 25.5555 4.2963 24.5606 4.2963 23.3332C4.2963 22.1059 5.25806 21.111 6.44451 21.111C7.63091 21.111 8.59267 22.1059 8.59267 23.3332C8.59267 24.5606 7.63091 25.5555 6.44451 25.5555Z" fill="#78B9EB"/>
<path d="M12.8899 24.6665V22.0002H11.4386C11.3169 21.5107 11.1287 21.0493 10.8863 20.6247L11.9136 19.562L10.091 17.6765L9.06375 18.7392C8.65345 18.4884 8.20729 18.2937 7.73423 18.1678V16.6666H6.44531V21.1109H6.44543C7.63182 21.1109 8.59358 22.1058 8.59358 23.3332C8.59358 24.5606 7.63182 25.5555 6.44543 25.5555H6.44531V30H7.73411V28.4986C8.20723 28.3727 8.65333 28.178 9.06364 27.9273L10.091 28.9901L11.9136 27.1046L10.8863 26.042C11.1287 25.6176 11.3169 25.156 11.4386 24.6666L12.8899 24.6665Z" fill="#3C5D76"/>
<path d="M28.9989 11.9998L28.999 7.99986L26.8223 7.9998C26.6396 7.26586 26.3585 6.57299 25.9948 5.93637L27.5348 4.34326L24.8008 1.51482L23.2607 3.10793C22.6453 2.7317 21.9755 2.44084 21.266 2.25193V0H17.3993V2.25182C16.6897 2.44072 16.02 2.7317 15.4046 3.10787L13.8644 1.51465L11.1302 4.34309L12.6703 5.93625C12.3066 6.57287 12.0254 7.26574 11.8428 7.99975H9.66602V11.9998H11.8427C12.0253 12.7338 12.3065 13.4267 12.6702 14.0633L11.1301 15.6564L13.8643 18.4849L15.4043 16.8918C16.0197 17.268 16.6895 17.559 17.399 17.7479V19.9996H21.2657V17.7479C21.9753 17.5591 22.6452 17.268 23.2606 16.8919L24.8006 18.485L27.5348 15.6565L25.9948 14.0634C26.3585 13.4268 26.6397 12.7339 26.8223 11.9998L28.9989 11.9998ZM19.3325 13.3333C17.5529 13.3333 16.1102 11.8409 16.1102 9.9999C16.1102 8.15894 17.5529 6.6665 19.3325 6.6665C21.1121 6.6665 22.5548 8.15894 22.5548 9.9999C22.5548 11.8409 21.1121 13.3333 19.3325 13.3333Z" fill="#C9E3F7"/>
<path d="M29.0003 11.9998L29.0004 7.99986L26.8237 7.9998C26.641 7.26586 26.3599 6.57299 25.9962 5.93637L27.5362 4.34326L24.8022 1.51482L23.2621 3.10793C22.6467 2.7317 21.9769 2.44084 21.2674 2.25193V0H19.334V6.66656C21.1136 6.66656 22.5563 8.159 22.5563 9.99996C22.5563 11.8409 21.1136 13.3334 19.334 13.3334V19.9997H21.2672V17.748C21.9768 17.5592 22.6466 17.2682 23.262 16.892L24.802 18.4851L27.5362 15.6567L25.9962 14.0636C26.3599 13.4269 26.6411 12.734 26.8237 11.9999L29.0003 11.9998Z" fill="#78B9EB"/>
</g>
<defs>
<clipPath id="clip0_2477_2075">
<rect width="29" height="30" fill="white"/>
</clipPath>
</defs>
</svg>
