<svg width="28" height="28" viewBox="0 0 28 28" fill="none" xmlns="http://www.w3.org/2000/svg">
<g clip-path="url(#clip0_0_6)">
<path fill-rule="evenodd" clip-rule="evenodd" d="M11.7775 21.3937C6.27374 21.3937 1.81214 17.01 1.81214 11.5938C1.81214 6.1775 6.27374 1.78503 11.7775 1.78503C17.2812 1.78503 21.7438 6.1775 21.7438 11.5938C21.7438 17.01 17.2812 21.3937 11.7775 21.3937ZM27.727 26.4688L20.5004 19.355C22.3921 17.2987 23.555 14.5863 23.555 11.5938C23.555 5.18875 18.2822 0 11.7775 0C5.27274 0 0 5.18875 0 11.5938C0 17.99 5.27274 23.1787 11.7775 23.1787C14.588 23.1787 17.1658 22.2075 19.1905 20.5888L26.446 27.7287C26.8004 28.0787 27.3735 28.0787 27.727 27.7287C28.0814 27.3875 28.0814 26.8188 27.727 26.4688Z" fill="black"/>
</g>
<defs>
<clipPath id="clip0_0_6">
<rect width="28" height="28" fill="white"/>
</clipPath>
</defs>
</svg>
