<svg width="33" height="33" viewBox="0 0 33 33" fill="none" xmlns="http://www.w3.org/2000/svg">
<path d="M16.4141 29.7C15.3921 29.7 15.0035 28.882 15.0826 27.2972C15.1351 26.2525 15.487 23.34 14.0125 21.8641C12.6374 20.4883 12.2374 20.6104 10.6705 18.8345C9.10365 17.0585 7.79875 17.4238 5.97113 17.5808C3.6752 17.7777 4.45737 5.0311 6.07553 5.25208C7.22414 5.40912 9.83518 5.72249 10.2529 5.72249C10.6705 5.72249 13.5347 3.50141 16.0483 3.47482C20.1206 3.4324 22.3665 4.15421 22.3665 4.15421L23.56 6.86219L23.9593 15.121L22.0533 19.0947C22.0533 19.0947 19.4947 18.6768 18.7638 19.826C18.0329 20.9751 19.3384 22.3858 19.3384 25.6769C19.3384 28.9681 16.9362 29.7 16.4141 29.7Z" fill="url(#paint0_linear_2461_3793)"/>
<path d="M22.5093 4.1788L22.3543 4.74417C21.8955 4.79293 21.305 4.584 20.4988 4.59035C16.648 4.62009 12.9669 5.72621 11.3873 6.97733C10.3526 7.79663 9.89889 8.88691 9.16794 8.57349C8.26617 8.18665 5.70764 7.58514 4.7666 8.77673C5.02986 6.73799 5.49945 5.17284 6.07596 5.25134C7.22452 5.40838 9.83561 5.7218 10.2533 5.7218C10.6709 5.7218 13.4554 3.5602 16.0494 3.47536C19.4053 3.36582 22.3859 3.94389 22.3859 3.94389L22.5093 4.1788Z" fill="url(#paint1_linear_2461_3793)"/>
<path d="M7.6025 16.7754C9.11687 16.3575 10.0788 17.0489 10.8527 17.9898C11.6216 18.9244 12.2886 19.7532 14.2206 21.0068C16.1527 22.2604 15.9046 25.7086 15.7477 26.8577C15.5907 28.0069 15.6952 29.7 16.4147 29.7C15.3926 29.7 15.0041 28.8819 15.0832 27.2972C15.1357 26.2525 15.4876 23.3399 14.0131 21.8641C12.6379 20.4882 12.238 20.6104 10.6711 18.8344C9.10482 17.0585 7.7993 17.4238 5.97168 17.5808C5.97168 17.1832 6.08813 17.1933 7.6025 16.7754Z" fill="url(#paint2_linear_2461_3793)"/>
<path d="M18.7646 19.8266C18.0336 20.9757 19.3391 22.3864 19.3391 25.6775C19.3391 28.9687 16.9376 29.7 16.4148 29.7C16.2775 29.7 16.1554 29.6848 16.0459 29.6556C18.176 29.522 19.4588 26.8343 18.7247 24.063C18.1292 21.814 17.8324 20.0114 18.805 18.9535C19.4341 18.269 20.6852 18.3855 22.0546 19.0953C22.0546 19.0953 19.4955 18.6768 18.7646 19.8266Z" fill="url(#paint3_linear_2461_3793)"/>
<path d="M18.9082 18.6533C17.6552 18.2354 14.4905 17.2521 12.0933 15.0772C6.01812 9.56563 16.3902 8.87486 18.5323 4.16168C18.9418 3.26071 21.3351 8.8869 21.3351 8.8869L22.1091 10.1899L19.8727 16.1479L18.9082 18.6533Z" fill="url(#paint4_linear_2461_3793)"/>
<path d="M19.0917 18.1766C17.8387 17.7587 12.7197 14.4777 12.7197 12.8575C12.7197 8.18161 16.2648 10.4895 18.1811 4.97215C18.4462 4.20795 19.3834 3.56531 19.3834 3.56531C20.1599 4.19908 21.3351 8.88694 21.3351 8.88694L22.1091 10.19L19.8726 16.1479L19.0917 18.1766Z" fill="url(#paint5_linear_2461_3793)"/>
<path d="M21.9845 3.84525L24.383 6.58868L24.9114 18.0488L18.9077 18.6541C17.5294 17.912 17.3699 16.8971 17.8819 15.2673C18.097 14.5816 17.2218 14.3853 17.1655 12.3877C17.1263 11.0037 18.0325 10.9967 18.0325 10.5851C18.0325 10.1736 17.5813 10.2103 17.4313 9.0181C17.2174 7.31237 18.645 7.27945 18.645 6.91476C18.645 6.55007 17.8521 6.33355 17.9009 4.94314C17.9629 3.1798 14.6899 3.53627 12.4769 5.14068C11.5681 5.79977 10.7752 5.86755 10.1562 5.7181C10.1949 5.72 10.2278 5.72128 10.2524 5.72128C10.6701 5.72128 13.4755 3.47485 16.0486 3.47485C19.057 3.47485 21.1384 3.6515 21.9845 3.84525Z" fill="url(#paint6_linear_2461_3793)"/>
<path d="M22.5356 17.898C20.6821 17.898 19.6638 16.086 20.3688 14.6937C21.0738 13.3013 19.0633 11.4583 19.2721 10.5509C19.4809 9.64425 19.8467 7.3472 20.1334 6.96729C20.4201 6.58742 19.6632 5.72566 19.6632 5.72566L22.0129 5.43823L24.2057 6.40567L24.1272 13.0392L24.362 17.1921L22.5356 17.898Z" fill="url(#paint7_linear_2461_3793)"/>
<path d="M10.6714 18.8338C9.65378 17.6802 8.74628 17.4301 7.73438 17.4397C8.02614 16.9686 8.22925 16.4538 8.20838 15.9505C8.15331 14.631 8.44379 13.0044 8.66592 14.6962C8.83488 15.9847 9.70819 17.577 10.7587 18.932C10.7296 18.8997 10.7011 18.868 10.6714 18.8338Z" fill="url(#paint8_linear_2461_3793)"/>
<path d="M23.9397 19.1472C21.7482 19.2308 17.8082 19.3549 17.7202 17.0578C17.6569 15.3919 18.8378 14.8455 20.6641 14.7759C22.4905 14.7062 23.4037 14.6714 24.1599 14.6429C24.9168 14.6138 27.2956 14.6284 27.319 16.6399C27.3481 19.1529 23.9397 19.1472 23.9397 19.1472Z" fill="url(#paint9_linear_2461_3793)"/>
<path d="M20.3345 10.8427C19.7473 10.8598 18.0026 10.4197 17.8393 9.3111C17.7108 8.43924 18.1557 7.31286 19.6739 7.04692C21.597 6.71012 24.8017 6.53344 25.999 6.98175C26.5338 7.18181 27.0002 7.74215 27.0248 8.5912C27.0495 9.44025 26.4192 10.5844 25.0492 10.6242C23.6791 10.6635 22.9652 10.6426 22.1843 10.735C21.2452 10.8458 20.8048 10.8294 20.3345 10.8427Z" fill="url(#paint10_linear_2461_3793)"/>
<path d="M19.7238 6.96854C19.058 6.96854 18.2354 6.38098 18.2354 5.40149C18.2354 4.42201 18.4898 3.69704 19.9193 3.42288C21.3489 3.14873 23.6398 3.38363 24.501 3.65779C25.1724 3.87179 25.4212 4.49989 25.4212 5.53824C25.4212 6.57663 24.775 6.75771 24.0701 6.75771C23.3651 6.75771 22.5095 6.62918 22.0209 6.6545C20.6572 6.72731 20.3895 6.96854 19.7238 6.96854Z" fill="url(#paint11_linear_2461_3793)"/>
<path d="M23.7532 18.6829C21.8395 18.7557 18.3988 18.8666 18.3299 17.0507C18.2799 15.7337 19.3126 15.2981 20.9074 15.2373C22.5021 15.1765 26.6978 15.0999 26.7117 16.6898C26.7294 18.6766 23.7532 18.6829 23.7532 18.6829Z" fill="url(#paint12_linear_2461_3793)"/>
<path d="M20.5116 10.375C20.0003 10.3895 18.5688 10.268 18.4315 9.20871C18.3385 8.49195 18.71 7.57137 20.0319 7.35168C21.707 7.07307 24.4966 6.92367 25.5388 7.28898C26.004 7.45233 26.4096 7.91012 26.4292 8.60592C26.4495 9.30177 25.8084 10.1546 24.6161 10.1895C23.4233 10.2236 22.7892 10.1135 22.1089 10.1907C21.2919 10.2819 20.9204 10.3629 20.5116 10.375Z" fill="url(#paint13_linear_2461_3793)"/>
<path d="M20.0079 6.61118C19.432 6.61118 18.7207 6.13825 18.7207 5.34935C18.7207 4.56044 18.9409 3.97666 20.1774 3.75632C21.414 3.53598 23.3954 3.72466 24.1409 3.94563C24.7212 4.11785 24.937 4.62376 24.937 5.46014C24.937 6.29591 24.3782 6.44214 23.7681 6.44214C23.1581 6.44214 22.4183 6.33832 21.9956 6.35923C20.8154 6.41681 20.5838 6.61118 20.0079 6.61118Z" fill="url(#paint14_linear_2461_3793)"/>
<path d="M19.6573 17.0503C19.7048 18.3014 20.7021 18.901 21.9621 19.1771C19.951 19.1302 17.7854 18.7541 17.7202 17.0579C17.6569 15.3921 18.8378 14.8457 20.6641 14.776C20.8654 14.7684 21.0546 14.7608 21.2343 14.7545C20.2085 15.0546 19.6073 15.7308 19.6573 17.0503Z" fill="url(#paint15_linear_2461_3793)"/>
<path d="M19.8288 18.9502C18.6587 18.6944 17.7613 18.141 17.7202 17.0577C17.6677 15.673 18.4758 15.062 19.799 14.855C17.1146 15.9275 18.0777 18.5678 19.8288 18.9502Z" fill="url(#paint16_linear_2461_3793)"/>
<path d="M14.7044 6.49701C14.4962 5.74989 13.0432 5.5023 11.4599 5.94426C9.87655 6.38621 8.76213 7.34985 8.97032 8.09697C9.17851 8.84409 10.6315 9.09167 12.2148 8.64972C13.7982 8.20777 14.9126 7.24474 14.7044 6.49701Z" fill="url(#paint17_radial_2461_3793)"/>
<path d="M25.5815 16.7139C25.5663 15.7528 24.2816 15.2969 22.8761 15.2114C21.7269 15.1418 20.4511 15.9554 20.484 16.8944C20.5169 17.8333 20.684 18.6653 23.0723 18.5823C24.4797 18.5336 25.596 17.6535 25.5815 16.7139Z" fill="url(#paint18_radial_2461_3793)"/>
<path d="M25.8365 8.26527C25.8289 6.93438 24.3658 7.18952 22.9603 7.09707C21.1782 6.97931 19.9968 7.53461 19.9961 8.47421C19.9949 9.4138 20.6726 10.0982 23.0628 10.102C24.4702 10.1046 25.8466 9.97542 25.8365 8.26527Z" fill="url(#paint19_radial_2461_3793)"/>
<path d="M24.5483 4.91022C24.5413 3.77561 23.2124 3.62112 21.9531 3.62049C20.6937 3.61922 19.3268 4.28718 19.3262 5.08814C19.3256 5.88909 19.9312 6.47286 22.0682 6.47599C23.3269 6.47789 24.5572 6.36775 24.5483 4.91022Z" fill="url(#paint20_radial_2461_3793)"/>
<path d="M19.4732 9.04204C19.6732 10.5572 20.835 10.4685 22.1671 10.6256C20.6338 10.7402 19.9902 10.7566 19.9902 10.7566C19.8471 10.7706 19.6871 10.7712 19.5206 10.7541C19.0226 10.6446 18.4581 10.4179 18.1227 9.99244C18.0088 9.83032 17.9164 9.63913 17.8556 9.41246C17.8493 9.37954 17.843 9.34597 17.8392 9.31177C17.731 8.43678 18.1556 7.31354 19.6738 7.04764C19.8927 7.00899 20.1294 6.9729 20.3762 6.93936C20.4946 6.92414 20.6236 6.90834 20.7622 6.8906C20.7996 6.88619 20.8369 6.88173 20.8749 6.87732C20.0376 7.27303 19.3263 7.92833 19.4732 9.04204Z" fill="url(#paint21_linear_2461_3793)"/>
<path d="M19.8452 10.7661C19.7421 10.7693 19.6326 10.7655 19.5206 10.7541C19.0181 10.6433 18.4486 10.4134 18.1151 9.98102C18.0049 9.82147 17.9163 9.63279 17.8569 9.41181C17.8506 9.3789 17.8461 9.34598 17.8404 9.31178C17.6866 8.45003 18.1132 7.43445 19.4396 7.09827C17.1766 8.34686 18.1417 10.7649 19.8452 10.7661Z" fill="url(#paint22_linear_2461_3793)"/>
<path d="M21.1622 6.73759C20.4933 6.83572 20.2187 6.96933 19.7238 6.96933C19.058 6.96933 18.2354 6.38176 18.2354 5.40228C18.2354 5.04642 18.2695 4.72479 18.3803 4.44557C18.4929 4.21511 18.6568 3.9992 18.8815 3.81685C19.1283 3.64464 19.4637 3.51104 19.9187 3.42367C20.2243 3.36478 20.5699 3.32996 20.9319 3.31287C20.2332 3.71872 19.0498 3.93716 19.2979 5.2959C19.5726 6.79649 20.468 6.59387 21.1622 6.73759Z" fill="url(#paint23_linear_2461_3793)"/>
<path d="M19.694 6.96796C19.034 6.95088 18.2354 6.36649 18.2354 5.40157C18.2354 4.50438 18.4499 3.82057 19.5852 3.50146C17.8126 4.64113 18.3815 6.56404 19.694 6.96796Z" fill="url(#paint24_linear_2461_3793)"/>
<path d="M27.3184 16.64C27.321 16.8654 27.2956 17.0699 27.2482 17.2567C27.4247 16.4716 26.7255 15.6916 24.8719 15.3129C23.6436 15.0622 20.3813 14.7488 18.124 15.6454C18.6113 15.0565 19.508 14.821 20.6636 14.7767C22.4899 14.707 23.4031 14.6722 24.1594 14.6437C24.9162 14.614 27.295 14.6285 27.3184 16.64Z" fill="url(#paint25_linear_2461_3793)"/>
<path d="M27.0255 8.64514C27.0229 9.4885 26.3907 10.5857 25.0491 10.6244C23.6791 10.6636 22.9652 10.6428 22.1843 10.7352C21.2458 10.846 20.8047 10.8295 20.3352 10.8428C19.9801 10.853 19.1043 10.746 18.5088 10.3755C19.1784 10.1432 20.2693 9.79367 21.8046 9.89184C25.4833 10.1286 26.5299 9.68353 27.0255 8.64514Z" fill="url(#paint26_linear_2461_3793)"/>
<path d="M19.5465 14.6435C18.7636 14.6593 17.5201 14.1984 17.4878 12.5718C17.4556 10.9452 18.8776 10.5584 19.5041 10.5457C20.1306 10.5331 22.3208 10.3837 25.0224 10.3298C27.7239 10.276 28.0859 11.7266 28.1011 12.4863C28.1163 13.2468 27.6347 14.6214 26.0096 14.6543C21.3108 14.7486 19.5465 14.6435 19.5465 14.6435Z" fill="url(#paint27_linear_2461_3793)"/>
<path d="M19.9662 14.1719C19.2853 14.1851 18.2057 13.8318 18.181 12.5776C18.1563 11.3233 19.3929 11.0213 19.9371 11.0105C20.482 10.9997 22.3862 10.8801 24.7346 10.8332C27.0831 10.7864 27.395 11.9045 27.4064 12.4915C27.4179 13.0777 27.3375 14.1389 25.9244 14.1674C21.8401 14.2485 19.9662 14.1719 19.9662 14.1719Z" fill="url(#paint28_linear_2461_3793)"/>
<path d="M19.168 12.7289C19.2465 14.3985 20.4115 14.403 21.7266 14.6917C20.1888 14.6822 19.5465 14.6442 19.5465 14.6442C18.7636 14.66 17.5201 14.1991 17.4878 12.5725C17.4556 10.946 18.8776 10.5591 19.5041 10.5465C19.73 10.542 20.1596 10.5198 20.7419 10.4907C19.8736 10.8485 19.1104 11.5006 19.168 12.7289Z" fill="url(#paint29_linear_2461_3793)"/>
<path d="M26.7243 12.5561C26.7787 11.2265 25.3023 10.9764 23.8955 10.9093C22.4888 10.8422 20.9251 11.5532 20.8801 12.4915C20.8352 13.4299 21.48 14.1453 23.8671 14.2612C25.2745 14.329 26.6547 14.2644 26.7243 12.5561Z" fill="url(#paint30_radial_2461_3793)"/>
<path d="M19.3993 14.6412C18.6171 14.5994 17.5173 14.1005 17.4869 12.5726C17.4559 11.0265 18.7393 10.6004 19.4044 10.5516C16.8306 11.5906 17.6742 14.488 19.3993 14.6412Z" fill="url(#paint31_linear_2461_3793)"/>
<path d="M28.0968 12.6512C27.7576 10.2452 21.3995 10.6858 17.9639 11.2025C18.4278 10.7055 19.1175 10.5548 19.5042 10.5466C20.1307 10.5339 22.3209 10.3845 25.0225 10.3307C27.7241 10.2768 28.086 11.7274 28.1012 12.4872C28.1018 12.5391 28.1006 12.5942 28.0968 12.6512Z" fill="url(#paint32_linear_2461_3793)"/>
<path d="M24.9115 7.29323C23.68 7.23878 20.4216 6.83358 18.0459 8.10684C18.3111 7.61424 18.8243 7.19575 19.6742 7.04692C21.5974 6.71012 24.802 6.53344 25.9993 6.98175C26.5341 7.18181 27.0005 7.74215 27.0252 8.5912C26.946 7.85295 26.243 7.35213 24.9115 7.29323Z" fill="url(#paint33_linear_2461_3793)"/>
<path d="M25.3268 4.61955C24.5199 4.00541 23.1252 3.64261 21.1127 3.98262C19.8699 4.19282 19.0181 4.26435 18.458 4.27957C18.682 3.87435 19.1143 3.57677 19.9192 3.42228C21.3488 3.14812 23.6397 3.38302 24.5009 3.65718C24.9433 3.799 25.2015 4.12064 25.3268 4.61955Z" fill="url(#paint34_linear_2461_3793)"/>
<path d="M18.5 6.2829C19.9909 6.82617 20.7218 6.02014 22.3172 6.02014C23.974 6.02014 24.7637 6.68938 25.3523 6.0531C25.1675 6.64001 24.6385 6.75839 24.0708 6.75839C23.3658 6.75839 22.5102 6.6299 22.0211 6.65523C20.6567 6.72675 20.3896 6.9686 19.7239 6.9686C19.2929 6.9686 18.7968 6.72234 18.5 6.2829Z" fill="url(#paint35_linear_2461_3793)"/>
<path d="M6.07553 5.25138C7.22414 5.40841 9.83518 5.72183 10.2528 5.72183C6.466 8.42981 8.14995 14.1896 9.54725 17.1027C9.74344 17.5117 9.8643 17.8473 9.92948 18.1322C8.66949 17.1711 7.50385 17.4484 5.97113 17.5801C3.6752 17.777 4.45737 5.0304 6.07553 5.25138Z" fill="url(#paint36_linear_2461_3793)"/>
<path d="M10.2534 5.72119C9.92868 5.99786 9.53697 6.46386 9.18449 6.91406C9.18449 6.91406 7.28344 5.94089 5.24512 6.39864C5.47991 5.65408 5.76214 5.20833 6.07602 5.2514C7.22462 5.40778 9.83566 5.72119 10.2534 5.72119Z" fill="url(#paint37_linear_2461_3793)"/>
<path d="M17.633 24.9091C16.8887 24.7483 16.2856 25.7765 15.9452 26.9763C15.6667 27.9577 16.0452 29.2069 16.7761 29.3481C17.507 29.4893 18.1816 29.4956 18.5847 27.4157C18.8214 26.19 18.3601 25.0661 17.633 24.9091Z" fill="url(#paint38_radial_2461_3793)"/>
<path d="M22.0541 19.0954C22.0541 19.0954 19.4956 18.6776 18.7647 19.8267C18.0337 20.9759 19.3393 22.3866 19.3393 25.6777C19.3393 28.9688 16.937 29.7001 16.4149 29.7001C15.3929 29.7001 15.0044 28.8821 15.0835 27.2973C15.136 26.2526 15.4878 23.3401 14.0134 21.8642C12.6382 20.4884 12.2382 20.6106 10.6714 18.8346C9.10449 17.0586 20.3822 18.3395 22.0541 19.0954Z" fill="url(#paint39_linear_2461_3793)"/>
<path d="M19.6936 6.96796C19.2804 6.97621 18.8665 6.78435 18.5799 6.47283C18.2843 6.16387 18.1508 5.71812 18.1685 5.29898C18.1818 4.88933 18.2438 4.44358 18.5122 4.10043C18.7767 3.75409 19.1899 3.59074 19.5854 3.50146C19.2026 3.63949 18.8235 3.83514 18.597 4.16312C18.3685 4.48854 18.3084 4.9001 18.3059 5.3015C18.2799 5.70105 18.4008 6.09866 18.659 6.4032C18.9134 6.70524 19.2842 6.92493 19.6936 6.96796Z" fill="#804B24"/>
<path d="M19.0369 10.6117C18.7591 10.5218 18.4813 10.3983 18.256 10.1969C18.02 10.0026 17.877 9.71447 17.7966 9.42704L17.7953 9.42259C17.7453 9.16366 17.7206 8.88634 17.7744 8.62102C17.8276 8.35574 17.9377 8.10251 18.0965 7.88467C18.418 7.44337 18.93 7.19583 19.4382 7.09766C18.9439 7.25849 18.48 7.53392 18.1934 7.95368C17.9004 8.36906 17.8168 8.90024 17.9156 9.39854L17.9143 9.39413C17.9909 9.66766 18.1029 9.93735 18.3124 10.1343C18.5187 10.3343 18.7673 10.4946 19.0369 10.6117Z" fill="#804B24"/>
<path d="M19.3992 14.6412C18.9113 14.6361 18.4089 14.4683 18.0399 14.1214C17.6659 13.7776 17.4723 13.2723 17.4318 12.7772C17.3906 12.2846 17.4723 11.7502 17.7811 11.3431C18.0836 10.9322 18.5588 10.696 19.0379 10.6086C18.5708 10.7454 18.1342 11.01 17.8672 11.4045C17.5963 11.7971 17.5197 12.2922 17.5684 12.7658C17.5975 13.2413 17.7786 13.7079 18.1133 14.0467C18.4468 14.3847 18.9151 14.5861 19.3992 14.6412Z" fill="#804B24"/>
<path d="M19.8285 18.9502C19.3001 18.8571 18.7641 18.6969 18.3224 18.3582C17.8725 18.0277 17.6231 17.449 17.6516 16.8963C17.6529 16.3517 17.8402 15.7642 18.2825 15.4096C18.7148 15.0506 19.2672 14.917 19.7981 14.855C19.2748 14.9664 18.7445 15.1374 18.3515 15.4894C17.9522 15.8376 17.7813 16.3733 17.7877 16.8982C17.7528 17.4268 17.9763 17.9429 18.3876 18.2772C18.7964 18.6127 19.3109 18.809 19.8285 18.9502Z" fill="#804B24"/>
<path d="M18.0459 8.10689C18.2022 7.79409 18.4509 7.52564 18.7521 7.33824C19.0553 7.15336 19.4014 7.04635 19.7482 6.98935C20.438 6.86716 21.1328 6.77914 21.8309 6.71899C22.5295 6.67341 23.2301 6.65378 23.93 6.67151C24.6261 6.69622 25.3405 6.73545 25.9993 6.98303C25.6665 6.87347 25.3171 6.83804 24.971 6.81016C24.6248 6.776 24.2761 6.76713 23.9281 6.76268C23.2313 6.76016 22.5346 6.79625 21.8404 6.85512C21.1449 6.89946 20.4513 6.97227 19.7628 7.07865C19.0869 7.17043 18.4022 7.48954 18.0459 8.10689Z" fill="#804B24"/>
<path d="M17.9639 11.2017C18.2145 10.9199 18.553 10.7205 18.915 10.6065C19.2814 10.4869 19.67 10.5046 20.0408 10.4793L22.2918 10.3678L24.5441 10.3026C25.2876 10.2615 26.0717 10.2855 26.7685 10.5831C26.0527 10.3374 25.2927 10.3482 24.546 10.3938L22.295 10.5046L20.0427 10.5698C19.6662 10.5869 19.2909 10.5635 18.934 10.6705C18.5739 10.761 18.2303 10.9358 17.9639 11.2017Z" fill="#804B24"/>
<path d="M26.01 14.6551C24.9335 14.714 23.8558 14.7342 22.7781 14.7463C21.6998 14.7633 20.6227 14.7627 19.5437 14.6975H19.5481C18.9906 14.6962 18.4242 14.4955 18.0319 14.0928C17.8351 13.8947 17.6902 13.6483 17.6053 13.385C17.5218 13.1209 17.4921 12.8455 17.4883 12.5726C17.5129 13.1171 17.6965 13.6636 18.0857 14.039C18.4673 14.4176 19.0166 14.5987 19.5456 14.5905H19.55C20.086 14.6114 20.6252 14.6145 21.1631 14.6183L22.7781 14.6405L24.3937 14.6437C24.9323 14.638 25.4708 14.6532 26.01 14.6551Z" fill="#804B24"/>
<defs>
<linearGradient id="paint0_linear_2461_3793" x1="22.1377" y1="16.8043" x2="14.2828" y2="16.489" gradientUnits="userSpaceOnUse">
<stop offset="0.00132565" stop-color="#FFCB4B"/>
<stop offset="1" stop-color="#FFD748"/>
</linearGradient>
<linearGradient id="paint1_linear_2461_3793" x1="14.2181" y1="12.7139" x2="13.6693" y2="6.81723" gradientUnits="userSpaceOnUse">
<stop offset="0.00132565" stop-color="#FFCB4B"/>
<stop offset="1" stop-color="#FFD748"/>
</linearGradient>
<linearGradient id="paint2_linear_2461_3793" x1="12.6529" y1="21.4619" x2="18.5703" y2="13.0017" gradientUnits="userSpaceOnUse">
<stop offset="0.00132565" stop-color="#FFCB4B"/>
<stop offset="1" stop-color="#FFD748"/>
</linearGradient>
<linearGradient id="paint3_linear_2461_3793" x1="8.37088" y1="24.8327" x2="23.5263" y2="23.6977" gradientUnits="userSpaceOnUse">
<stop offset="0.3118" stop-color="#FFBC47" stop-opacity="0"/>
<stop offset="1" stop-color="#FF8900"/>
</linearGradient>
<linearGradient id="paint4_linear_2461_3793" x1="8.08243" y1="11.358" x2="27.984" y2="11.3582" gradientUnits="userSpaceOnUse">
<stop stop-color="#FFBC47" stop-opacity="0"/>
<stop offset="1" stop-color="#FFA754"/>
</linearGradient>
<linearGradient id="paint5_linear_2461_3793" x1="4.87336" y1="11.3281" x2="44.191" y2="10.0758" gradientUnits="userSpaceOnUse">
<stop stop-color="#FFBC47" stop-opacity="0"/>
<stop offset="1" stop-color="#C86F34"/>
</linearGradient>
<linearGradient id="paint6_linear_2461_3793" x1="11.1208" y1="6.19021" x2="17.623" y2="9.71374" gradientUnits="userSpaceOnUse">
<stop stop-color="#FFBC47" stop-opacity="0"/>
<stop offset="1" stop-color="#C86F34"/>
</linearGradient>
<linearGradient id="paint7_linear_2461_3793" x1="18.5692" y1="11.1929" x2="23.9912" y2="11.9049" gradientUnits="userSpaceOnUse">
<stop stop-color="#643800" stop-opacity="0"/>
<stop offset="1" stop-color="#643800"/>
</linearGradient>
<linearGradient id="paint8_linear_2461_3793" x1="8.94638" y1="23.163" x2="10.1224" y2="3.69022" gradientUnits="userSpaceOnUse">
<stop stop-color="#FFBC47" stop-opacity="0"/>
<stop offset="1" stop-color="#FFA754"/>
</linearGradient>
<linearGradient id="paint9_linear_2461_3793" x1="26.9478" y1="16.9094" x2="19.2538" y2="16.9093" gradientUnits="userSpaceOnUse">
<stop offset="0.00132565" stop-color="#FFBC47"/>
<stop offset="1" stop-color="#FFD748"/>
</linearGradient>
<linearGradient id="paint10_linear_2461_3793" x1="26.9473" y1="8.77794" x2="19.2491" y2="8.7779" gradientUnits="userSpaceOnUse">
<stop offset="0.00132565" stop-color="#FFBC47"/>
<stop offset="1" stop-color="#FFD748"/>
</linearGradient>
<linearGradient id="paint11_linear_2461_3793" x1="26.9479" y1="5.13399" x2="19.2539" y2="5.13395" gradientUnits="userSpaceOnUse">
<stop offset="0.00132565" stop-color="#FFBC47"/>
<stop offset="1" stop-color="#FFD748"/>
</linearGradient>
<linearGradient id="paint12_linear_2461_3793" x1="18.2168" y1="16.8711" x2="22.2243" y2="16.9624" gradientUnits="userSpaceOnUse">
<stop offset="0.00132565" stop-color="#FFCB4B"/>
<stop offset="1" stop-color="#FFD748"/>
</linearGradient>
<linearGradient id="paint13_linear_2461_3793" x1="25.2247" y1="8.72361" x2="21.1398" y2="8.72357" gradientUnits="userSpaceOnUse">
<stop offset="0.00132565" stop-color="#FFCB4B"/>
<stop offset="1" stop-color="#FFD748"/>
</linearGradient>
<linearGradient id="paint14_linear_2461_3793" x1="25.2248" y1="5.13377" x2="21.1398" y2="5.13373" gradientUnits="userSpaceOnUse">
<stop offset="0.00132565" stop-color="#FFCB4B"/>
<stop offset="1" stop-color="#FFD748"/>
</linearGradient>
<linearGradient id="paint15_linear_2461_3793" x1="20.2382" y1="16.9652" x2="18.0586" y2="16.9652" gradientUnits="userSpaceOnUse">
<stop offset="0.00132565" stop-color="#FBA23B" stop-opacity="0"/>
<stop offset="1" stop-color="#FBA23B"/>
</linearGradient>
<linearGradient id="paint16_linear_2461_3793" x1="19.8466" y1="16.9024" x2="17.34" y2="16.9023" gradientUnits="userSpaceOnUse">
<stop offset="0.00132565" stop-color="#FFBC47"/>
<stop offset="1" stop-color="#E89043"/>
</linearGradient>
<radialGradient id="paint17_radial_2461_3793" cx="0" cy="0" r="1" gradientUnits="userSpaceOnUse" gradientTransform="translate(11.5524 7.8095) rotate(-15.5933) scale(3.0599 1.42089)">
<stop stop-color="#FBE07A"/>
<stop offset="1" stop-color="#FFD748" stop-opacity="0"/>
</radialGradient>
<radialGradient id="paint18_radial_2461_3793" cx="0" cy="0" r="1" gradientUnits="userSpaceOnUse" gradientTransform="translate(23.0366 16.8904) rotate(-2.02716) scale(2.61815 1.71837)">
<stop stop-color="#FBE07A"/>
<stop offset="1" stop-color="#FFD748"/>
</radialGradient>
<radialGradient id="paint19_radial_2461_3793" cx="0" cy="0" r="1" gradientUnits="userSpaceOnUse" gradientTransform="translate(22.9094 8.45383) rotate(0.0544049) scale(2.81172 1.51573)">
<stop stop-color="#FBE07A"/>
<stop offset="1" stop-color="#FFD748" stop-opacity="0"/>
</radialGradient>
<radialGradient id="paint20_radial_2461_3793" cx="0" cy="0" r="1" gradientUnits="userSpaceOnUse" gradientTransform="translate(21.9369 5.04606) rotate(0.0539593) scale(2.57436 1.61122)">
<stop stop-color="#FBE07A"/>
<stop offset="1" stop-color="#FFD748" stop-opacity="0"/>
</radialGradient>
<linearGradient id="paint21_linear_2461_3793" x1="20.4987" y1="8.8216" x2="17.3397" y2="8.8216" gradientUnits="userSpaceOnUse">
<stop offset="0.00132565" stop-color="#FBA23B" stop-opacity="0"/>
<stop offset="1" stop-color="#FBA23B"/>
</linearGradient>
<linearGradient id="paint22_linear_2461_3793" x1="19.8279" y1="8.93204" x2="18.1263" y2="8.93199" gradientUnits="userSpaceOnUse">
<stop offset="0.00132565" stop-color="#FFBC47"/>
<stop offset="1" stop-color="#FBA23B"/>
</linearGradient>
<linearGradient id="paint23_linear_2461_3793" x1="20.3859" y1="5.11341" x2="16.6916" y2="5.79185" gradientUnits="userSpaceOnUse">
<stop offset="0.00132565" stop-color="#FBA23B" stop-opacity="0"/>
<stop offset="1" stop-color="#FBA23B"/>
</linearGradient>
<linearGradient id="paint24_linear_2461_3793" x1="20.0039" y1="5.23406" x2="18.4423" y2="5.23406" gradientUnits="userSpaceOnUse">
<stop offset="0.00132565" stop-color="#FFBC47"/>
<stop offset="1" stop-color="#FBA23B"/>
</linearGradient>
<linearGradient id="paint25_linear_2461_3793" x1="22.4924" y1="17.3939" x2="23.4854" y2="12.588" gradientUnits="userSpaceOnUse">
<stop stop-color="#FFBC47" stop-opacity="0"/>
<stop offset="1" stop-color="#C86F34"/>
</linearGradient>
<linearGradient id="paint26_linear_2461_3793" x1="23.2475" y1="7.89839" x2="22.164" y2="11.8075" gradientUnits="userSpaceOnUse">
<stop stop-color="#FFBC47" stop-opacity="0"/>
<stop offset="1" stop-color="#C86F34"/>
</linearGradient>
<linearGradient id="paint27_linear_2461_3793" x1="26.9477" y1="12.5107" x2="19.2538" y2="12.5106" gradientUnits="userSpaceOnUse">
<stop offset="0.00132565" stop-color="#FFBC47"/>
<stop offset="1" stop-color="#FFD748"/>
</linearGradient>
<linearGradient id="paint28_linear_2461_3793" x1="18.943" y1="12.7254" x2="24.8367" y2="12.5102" gradientUnits="userSpaceOnUse">
<stop offset="0.00132565" stop-color="#FFCB4B"/>
<stop offset="0.7382" stop-color="#FFD748"/>
<stop offset="1" stop-color="#FFCB4B"/>
</linearGradient>
<linearGradient id="paint29_linear_2461_3793" x1="21.2433" y1="12.5903" x2="16.84" y2="12.5903" gradientUnits="userSpaceOnUse">
<stop offset="0.00132565" stop-color="#FBA23B" stop-opacity="0"/>
<stop offset="1" stop-color="#FBA23B"/>
</linearGradient>
<radialGradient id="paint30_radial_2461_3793" cx="0" cy="0" r="1" gradientUnits="userSpaceOnUse" gradientTransform="translate(23.7996 12.5818) rotate(2.73604) scale(2.87903 1.8897)">
<stop stop-color="#FBE07A"/>
<stop offset="1" stop-color="#FFD748" stop-opacity="0"/>
</radialGradient>
<linearGradient id="paint31_linear_2461_3793" x1="19.1962" y1="12.5957" x2="17.8059" y2="12.5957" gradientUnits="userSpaceOnUse">
<stop offset="0.00132565" stop-color="#FFBC47"/>
<stop offset="1" stop-color="#FBA23B"/>
</linearGradient>
<linearGradient id="paint32_linear_2461_3793" x1="22.8581" y1="13.0196" x2="23.6944" y2="7.70421" gradientUnits="userSpaceOnUse">
<stop stop-color="#FFBC47" stop-opacity="0"/>
<stop offset="1" stop-color="#C86F34"/>
</linearGradient>
<linearGradient id="paint33_linear_2461_3793" x1="22.2784" y1="8.9073" x2="24.421" y2="4.25867" gradientUnits="userSpaceOnUse">
<stop stop-color="#FFBC47" stop-opacity="0"/>
<stop offset="1" stop-color="#C86F34"/>
</linearGradient>
<linearGradient id="paint34_linear_2461_3793" x1="21.8519" y1="4.82923" x2="22.1655" y2="1.89068" gradientUnits="userSpaceOnUse">
<stop stop-color="#FFBC47" stop-opacity="0"/>
<stop offset="1" stop-color="#C86F34"/>
</linearGradient>
<linearGradient id="paint35_linear_2461_3793" x1="21.926" y1="5.27517" x2="21.926" y2="7.40078" gradientUnits="userSpaceOnUse">
<stop stop-color="#FFBC47" stop-opacity="0"/>
<stop offset="1" stop-color="#C86F34"/>
</linearGradient>
<linearGradient id="paint36_linear_2461_3793" x1="7.32173" y1="13.0737" x2="4.57799" y2="21.438" gradientUnits="userSpaceOnUse">
<stop stop-color="#C86F34" stop-opacity="0"/>
<stop offset="1" stop-color="#C86F34"/>
</linearGradient>
<linearGradient id="paint37_linear_2461_3793" x1="7.79977" y1="7.99807" x2="7.64294" y2="2.00339" gradientUnits="userSpaceOnUse">
<stop stop-color="#FFBC47" stop-opacity="0"/>
<stop offset="1" stop-color="#C86F34"/>
</linearGradient>
<radialGradient id="paint38_radial_2461_3793" cx="0" cy="0" r="1" gradientUnits="userSpaceOnUse" gradientTransform="translate(17.2745 27.1414) rotate(-79.0714) scale(2.76055 1.61942)">
<stop stop-color="#FBE07A"/>
<stop offset="1" stop-color="#FFD748" stop-opacity="0"/>
</radialGradient>
<linearGradient id="paint39_linear_2461_3793" x1="16.1907" y1="17.9351" x2="18.2029" y2="36.1278" gradientUnits="userSpaceOnUse">
<stop stop-color="#FFBC47" stop-opacity="0"/>
<stop offset="1" stop-color="#C86F34"/>
</linearGradient>
</defs>
</svg>
