<svg width="161" height="161" viewBox="0 0 161 161" fill="none" xmlns="http://www.w3.org/2000/svg">
<path d="M54.8591 131.888H106.136C107.118 124.084 111.104 120.77 116.08 115.939C123.207 109.021 132.076 100.411 132.076 79.0378C132.076 65.3694 126.65 52.9313 116.799 44.014C107.298 35.4136 94.407 30.6772 80.5004 30.6772C66.5938 30.6772 53.7028 35.4136 44.2021 44.014C34.3511 52.9313 28.9258 65.3694 28.9258 79.0378C28.9258 100.443 37.8134 109.103 44.955 116.061C49.8948 120.875 53.8596 124.227 54.8591 131.888Z" fill="#FFDA44"/>
<path d="M86.8551 0H74.1445V16.9474H86.8551V0Z" fill="#FFEB99"/>
<path d="M128.162 16.2378L117.586 9.18726L109.112 21.8987L119.689 28.9492L128.162 16.2378Z" fill="#FFE477"/>
<path d="M153.422 52.9039L151.625 40.3204L136.795 42.4385L138.593 55.0219L153.422 52.9039Z" fill="#FFE477"/>
<path d="M24.2011 42.4297L9.37305 40.3116L7.57578 52.8938L22.4038 55.0119L24.2011 42.4297Z" fill="#FFEB99"/>
<path d="M51.8937 21.8983L43.4199 9.18689L32.8435 16.2374L41.3173 28.9489L51.8937 21.8983Z" fill="#FFEB99"/>
<path d="M116.798 44.014C107.298 35.4136 94.4066 30.6772 80.5 30.6772V131.888H106.135C107.118 124.084 111.104 120.77 116.079 115.939C123.206 109.021 132.075 100.411 132.075 79.0378C132.075 65.3694 126.65 52.9313 116.798 44.014Z" fill="#FFCD00"/>
<path d="M98.2047 146.444H62.7949V161H98.2047V146.444Z" fill="#C9E3F7"/>
<path d="M104.363 135.527H56.6367V150.083H104.363V135.527Z" fill="#C9E3F7"/>
<path d="M110.521 124.61H50.4785V139.166H110.521V124.61Z" fill="#C9E3F7"/>
<path d="M80.5 124.61V161H98.2049V150.083H104.363V139.166H110.521V124.61H80.5Z" fill="#78B9EB"/>
<path d="M86.8553 0H80.5V16.9474H86.8553V0Z" fill="#FFE477"/>
</svg>
