<svg width="16" height="16" viewBox="0 0 16 16" fill="none" xmlns="http://www.w3.org/2000/svg">
<path d="M7.22668 7.96843C7.22668 7.52462 7.58775 7.16354 8.03157 7.16354V0C5.90314 0 3.90208 0.828878 2.39703 2.3339C0.891981 3.83892 0.0631357 5.84001 0.0631357 7.96846C0.0631357 9.4711 0.479716 10.9228 1.27086 12.1874L0 16L3.81261 14.7291C5.07719 15.5203 6.5289 15.9369 8.03157 15.9369V8.77332C7.58775 8.77332 7.22668 8.41225 7.22668 7.96843ZM5.58225 8.77332C5.13843 8.77332 4.77736 8.41225 4.77736 7.96843C4.77736 7.52462 5.13843 7.16354 5.58225 7.16354C6.02607 7.16354 6.38714 7.52462 6.38714 7.96843C6.38714 8.41225 6.02607 8.77332 5.58225 8.77332Z" fill="#FFDA44"/>
<path d="M13.6658 2.3339C12.1607 0.828878 10.1597 0 8.03125 0V7.16354C8.47507 7.16354 8.83614 7.52461 8.83614 7.96843C8.83614 8.41225 8.47507 8.77332 8.03125 8.77332V15.9369C10.1597 15.9369 12.1607 15.108 13.6658 13.603C15.1708 12.0979 15.9997 10.0969 15.9997 7.96846C15.9997 5.84001 15.1708 3.83895 13.6658 2.3339ZM10.4806 8.77332C10.0368 8.77332 9.67568 8.41225 9.67568 7.96843C9.67568 7.52461 10.0368 7.16354 10.4806 7.16354C10.9244 7.16354 11.2855 7.52461 11.2855 7.96843C11.2855 8.41225 10.9244 8.77332 10.4806 8.77332Z" fill="#FFCD00"/>
<path d="M5.58224 7.16357C5.13842 7.16357 4.77734 7.52465 4.77734 7.96847C4.77734 8.41228 5.13842 8.77336 5.58224 8.77336C6.02605 8.77336 6.38713 8.41228 6.38713 7.96847C6.38713 7.52465 6.02605 7.16357 5.58224 7.16357Z" fill="#2488FF"/>
<path d="M10.4807 7.16357C10.0369 7.16357 9.67578 7.52465 9.67578 7.96847C9.67578 8.41228 10.0369 8.77336 10.4807 8.77336C10.9245 8.77336 11.2856 8.41228 11.2856 7.96847C11.2856 7.52465 10.9245 7.16357 10.4807 7.16357Z" fill="#2488FF"/>
<path d="M7.22656 7.96847C7.22656 8.41228 7.58764 8.77336 8.03145 8.77336C8.47527 8.77336 8.83635 8.41228 8.83635 7.96847C8.83635 7.52465 8.47527 7.16357 8.03145 7.16357C7.58764 7.16357 7.22656 7.52465 7.22656 7.96847Z" fill="#2488FF"/>
</svg>
