<svg width="45" height="45" viewBox="0 0 45 45" fill="none" xmlns="http://www.w3.org/2000/svg">
<g clip-path="url(#clip0_0_75)">
<path d="M39.8569 35.3977C37.365 33.8615 36.2245 29.0157 36.2245 27.4008V20.6117C36.2245 13.2165 30.92 7.06438 23.9091 5.74312C24.0949 5.50239 24.2531 5.23837 24.3734 4.95237C24.5548 4.52584 24.6544 4.05387 24.6544 3.56493C24.655 2.83025 24.4295 2.13847 24.0452 1.5714C23.6608 1.00239 23.1189 0.552568 22.4781 0.280986C22.0511 0.0995801 21.5791 0 21.0902 0C20.3561 0 19.6643 0.225527 19.0966 0.609873C18.5283 0.993604 18.0778 1.53615 17.8062 2.17687C17.6254 2.60411 17.5259 3.07538 17.5259 3.56493C17.5252 4.29829 17.7514 4.99078 18.1351 5.55847C18.1779 5.62148 18.2234 5.68327 18.2706 5.74312C11.2605 7.065 5.95586 13.2171 5.95586 20.6117V27.4008C5.95586 29.0157 4.81539 33.8615 2.32316 35.3977C-5.52609 40.2354 7.97391 45 21.0902 45C34.2064 45 47.7064 40.2354 39.8569 35.3977ZM19.9813 2.81839C20.1262 2.60411 20.3315 2.43343 20.5704 2.33323C20.7297 2.26582 20.9031 2.22803 21.0902 2.22803C21.3706 2.22864 21.6226 2.31187 21.8368 2.4561C22.0511 2.60042 22.2218 2.80644 22.3227 3.04523C22.3895 3.20405 22.4266 3.37729 22.4266 3.56511C22.426 3.84548 22.3435 4.09685 22.1992 4.31104C22.0549 4.52531 21.8489 4.696 21.6107 4.79689C21.4512 4.86369 21.2779 4.90148 21.0902 4.90148C20.8098 4.90087 20.5584 4.81834 20.3435 4.67402C20.13 4.52909 19.9592 4.32308 19.8584 4.08428C19.7916 3.92546 19.7538 3.75284 19.7538 3.56511C19.7544 3.28395 19.8369 3.03258 19.9813 2.81839Z" fill="#FF7518"/>
<path d="M41.8704 39.0447C41.8704 42.333 32.5057 44.9996 20.9526 44.9996C9.40021 44.9996 0.0356445 42.333 0.0356445 39.0447C0.0356445 35.7564 9.40021 33.0898 20.9526 33.0898C32.5057 33.0898 41.8704 35.7564 41.8704 39.0447Z" fill="#FF7518"/>
<path d="M22.3387 3.08355C22.723 4.06705 21.9121 4.82889 21.0898 4.87362V45C23.2006 45 25.3126 44.8803 27.4095 44.6447C29.7087 44.3863 31.9984 43.9937 34.2383 43.4078C36.0196 42.9396 37.8058 42.3606 39.4276 41.4766C40.4357 40.9285 41.6033 40.1774 42.0387 39.0559C42.4394 38.0232 41.883 37.0492 41.1326 36.3478C40.5232 35.7782 39.7571 35.4229 39.1573 34.8495C38.4428 34.1659 37.923 33.2945 37.5121 32.4036C36.7989 30.8618 36.2236 29.049 36.2236 27.3371V20.9255C36.2236 17.5628 35.2672 14.3167 33.2503 11.601C30.9978 8.566 27.6275 6.44071 23.9107 5.74128C25.685 3.44145 23.992 -0.00123014 21.0898 3.29751e-07V2.25571C21.5694 2.22987 22.0539 2.44846 22.3059 3.00797L22.3135 3.02564C22.3166 3.03188 22.3198 3.0382 22.3223 3.04576C22.3255 3.05464 22.3305 3.06211 22.3331 3.07099C22.3367 3.07925 22.3387 3.08355 22.3387 3.08355Z" fill="#B2FFFF" fill-opacity="0.51"/>
<path d="M17.1732 34.9443C8.40035 35.3545 1.80029 37.1332 1.80029 39.2679C1.80029 41.6988 10.3672 43.6697 20.9524 43.6804V34.8555C19.6595 34.8568 18.3949 34.8864 17.1732 34.9443Z" fill="#FF7518"/>
<path d="M25.315 34.9652C23.9389 34.8927 22.51 34.8555 21.0406 34.8555C21.0116 34.8555 20.982 34.8561 20.9524 34.8561V43.681C20.982 43.681 21.0116 43.6816 21.0406 43.6816C31.6675 43.6816 40.2819 41.7064 40.2819 39.2686C40.2819 37.1679 33.8847 35.41 25.315 34.9652Z" fill="#FF7518"/>
<path d="M25.9571 37.3393C25.9571 39.9458 23.8439 42.0592 21.2385 42.0592C18.6331 42.0592 16.5205 39.9459 16.5205 37.3393C16.5205 36.4654 16.7587 35.6462 17.1733 34.9449C18.4233 34.8857 19.7169 34.8555 21.0406 34.8555C22.51 34.8555 23.939 34.8927 25.315 34.9652C25.724 35.662 25.9571 36.4742 25.9571 37.3393Z" fill="#F9FFFF" fill-opacity="0.63"/>
<path d="M19.5405 40.4145C20.0767 40.4145 20.5114 39.9798 20.5114 39.4436C20.5114 38.9074 20.0767 38.4727 19.5405 38.4727C19.0043 38.4727 18.5696 38.9074 18.5696 39.4436C18.5696 39.9798 19.0043 40.4145 19.5405 40.4145Z" fill="#F9FFFF" fill-opacity="0.63"/>
<path d="M10.0633 19.214C10.0639 17.0163 10.7617 14.9856 11.9506 13.3202C13.1389 11.6562 14.8181 10.3621 16.77 9.65388C17.2325 9.48566 17.4713 8.97528 17.3037 8.51218C17.1354 8.0497 16.6244 7.81152 16.162 7.97974C13.8641 8.8133 11.8958 10.3306 10.4998 12.285C9.10395 14.2383 8.28006 16.635 8.28076 19.2139C8.28076 19.7054 8.67987 20.1043 9.17162 20.1043C9.66407 20.1043 10.0633 19.7054 10.0633 19.214Z" fill="#FF7518"/>
</g>
<defs>
<clipPath id="clip0_0_75">
<rect width="45" height="45" fill="white"/>
</clipPath>
</defs>
</svg>
