<svg width="167" height="167" viewBox="0 0 167 167" fill="none" xmlns="http://www.w3.org/2000/svg">
<g clip-path="url(#clip0_2314_992)">
<path d="M62.6847 114.811L68.6001 108.895L58.1046 98.3996L52.1891 104.315C49.8263 102.919 47.2571 101.835 44.5329 101.134V92.7773H29.6891L29.6895 101.134C26.965 101.836 24.396 102.919 22.0332 104.315L16.1171 98.3992L5.62157 108.896L11.538 114.811C10.142 117.174 9.05812 119.743 8.3575 122.468H0V137.311L8.35783 137.311C9.05877 140.035 10.142 142.604 11.538 144.967L5.6219 150.883L16.1175 161.378L22.0339 155.462C24.3964 156.858 26.9656 157.942 29.6891 158.643L29.6895 167H44.5322V158.643C47.2568 157.942 49.8257 156.858 52.1885 155.462L58.1049 161.378L68.6005 150.883L62.6844 144.967C64.0804 142.605 65.1642 140.035 65.8649 137.311L74.2224 137.31V122.468H65.8652C65.1646 119.743 64.081 117.174 62.6847 114.811ZM37.1115 142.259C30.2792 142.259 24.7408 136.721 24.7408 129.889C24.7408 123.056 30.2792 117.518 37.1115 117.518C43.9435 117.518 49.4819 123.056 49.4819 129.889C49.4819 136.721 43.9435 142.259 37.1115 142.259Z" fill="#78B9EB"/>
<path d="M74.2232 137.31V122.468H65.866C65.165 119.743 64.0812 117.174 62.6855 114.811L68.6009 108.895L58.1054 98.3996L52.1899 104.315C49.8271 102.919 47.2579 101.835 44.5337 101.134V92.7773H37.1113V117.517H37.112C43.944 117.517 49.4824 123.056 49.4824 129.888C49.4824 136.721 43.944 142.259 37.112 142.259H37.1113V167H44.533V158.643C47.2576 157.942 49.8265 156.858 52.1893 155.462L58.1057 161.378L68.6013 150.883L62.6852 144.967C64.0812 142.605 65.165 140.035 65.8657 137.311L74.2232 137.31Z" fill="#3C5D76"/>
<path d="M166.999 66.799L166.999 44.5326L154.464 44.5322C153.413 40.4466 151.793 36.5896 149.699 33.0458L158.568 24.1775L142.823 8.43252L133.955 17.3008C130.411 15.2065 126.554 13.5873 122.468 12.5358V0H100.201V12.5351C96.1149 13.5867 92.2579 15.2065 88.7144 17.3005L79.8448 8.43154L64.0995 24.1765L72.9685 33.0451C70.8741 36.589 69.2547 40.446 68.2031 44.5319H55.668V66.7987H68.2028C69.254 70.8846 70.8738 74.742 72.9678 78.2858L64.0992 87.1541L79.8445 102.899L88.7128 94.0311C92.2566 96.1255 96.1136 97.7449 100.2 98.7965V111.331H122.466V98.7968C126.553 97.7456 130.41 96.1255 133.954 94.0314L142.822 102.9L158.567 87.1547L149.699 78.2865C151.793 74.7426 153.413 70.8853 154.464 66.7987L166.999 66.799ZM111.334 74.222C101.086 74.222 92.7779 65.9141 92.7779 55.6661C92.7779 45.4181 101.086 37.1102 111.334 37.1102C121.582 37.1102 129.89 45.4181 129.89 55.6661C129.89 65.9141 121.582 74.222 111.334 74.222Z" fill="#C9E3F7"/>
<path d="M166.999 66.799L166.999 44.5326L154.464 44.5322C153.412 40.4466 151.793 36.5896 149.699 33.0458L158.568 24.1775L142.823 8.43252L133.955 17.3008C130.411 15.2065 126.553 13.5873 122.468 12.5358V0H111.334V37.1105C121.582 37.1105 129.89 45.4185 129.89 55.6665C129.89 65.9144 121.582 74.2224 111.334 74.2224V111.332H122.467V98.7975C126.553 97.7462 130.41 96.1261 133.954 94.0321L142.822 102.9L158.568 87.1554L149.699 78.2871C151.794 74.7433 153.413 70.886 154.465 66.7993L166.999 66.799Z" fill="#78B9EB"/>
</g>
<defs>
<clipPath id="clip0_2314_992">
<rect width="167" height="167" rx="10" fill="white"/>
</clipPath>
</defs>
</svg>
