<svg width="149" height="149" viewBox="0 0 149 149" fill="none" xmlns="http://www.w3.org/2000/svg">
<path d="M113.028 138.264C97.355 147.734 78.7433 151.1 60.7463 147.719C42.7493 144.339 26.6277 134.448 15.4596 119.936L74.5 74.5L113.028 138.264Z" fill="#2488FF"/>
<path d="M113.028 138.264C97.355 147.734 78.7433 151.1 60.7463 147.719C42.7493 144.339 26.6277 134.448 15.4596 119.936L74.5 74.5L113.028 138.264Z" fill="#C3B1E1"/>
<path d="M147.72 88.2487C144.341 106.246 134.452 122.368 119.94 133.537C105.429 144.706 87.3129 150.14 69.0502 148.8L74.5 74.5L147.72 88.2487Z" fill="#39B632"/>
<path d="M147.72 88.2487C144.341 106.246 134.452 122.368 119.94 133.537C105.429 144.706 87.3129 150.14 69.0502 148.8L74.5 74.5L147.72 88.2487Z" fill="#D8E8E8"/>
<path d="M135.887 116.713C145.538 102.678 150.088 85.759 148.78 68.776C147.471 51.793 140.382 35.7713 128.694 23.3805L74.5 74.5L135.887 116.713Z" fill="#2488FF"/>
<path d="M135.887 116.713C145.538 102.678 150.088 85.759 148.78 68.776C147.471 51.793 140.382 35.7713 128.694 23.3805L74.5 74.5L135.887 116.713Z" fill="#71D1D1"/>
<path d="M21.8205 21.8205C30.7659 12.8751 41.842 6.35497 54.0045 2.87467C66.1671 -0.605625 79.0156 -0.931423 91.339 1.92799C103.662 4.78739 115.055 10.7378 124.442 19.2184C133.829 27.6989 140.902 38.4303 144.994 50.4008L74.5 74.5L21.8205 21.8205Z" fill="#069494"/>
<path d="M26.4794 131.458C16.299 122.876 8.60507 111.721 4.19825 99.1558C-0.208578 86.5906 -1.16718 73.0739 1.42221 60.0125C4.0116 46.9511 10.0543 34.8224 18.9215 24.8887C27.7887 14.9549 39.1562 7.57933 51.841 3.52943L74.5 74.5L26.4794 131.458Z" fill="#B392EB"/>
</svg>
